<?xml version="1.0" standalone="no"?>
<!DOCTYPE svg PUBLIC "-//W3C//DTD SVG 1.1//EN" "http://www.w3.org/Graphics/SVG/1.1/DTD/svg11.dtd" >
<!--
2013-9-30: Created.
-->
<svg>
<metadata>
Created by iconfont
</metadata>
<defs>

<font id="iconfont" horiz-adv-x="1024" >
  <font-face
    font-family="iconfont"
    font-weight="500"
    font-stretch="normal"
    units-per-em="1024"
    ascent="896"
    descent="-128"
  />
    <missing-glyph />
    
    <glyph glyph-name="Error" unicode="&#59613;" d="M512 896C229.205333 896 0 666.794667 0 384s229.205333-512 512-512 512 229.205333 512 512S794.794667 896 512 896z m205.312-666.88a36.010667 36.010667 0 0 0-51.029333-50.816L512 333.013333l-154.282667-154.709333a35.84 35.84 0 0 0-50.901333-0.085333 36.010667 36.010667 0 0 0-0.128 50.901333L461.226667 384 306.773333 538.88a36.010667 36.010667 0 0 0 50.986667 50.816L512 434.986667l154.282667 154.794666a36.010667 36.010667 0 0 0 51.029333-50.773333L562.773333 384l154.453334-154.88z"  horiz-adv-x="1024" />

    
    <glyph glyph-name="Info" unicode="&#59614;" d="M512 896C229.205333 896 0 666.794667 0 384s229.205333-512 512-512 512 229.205333 512 512S794.794667 896 512 896z m-2.986667-184.490667a35.968 35.968 0 1 0 0-71.978666 35.968 35.968 0 0 0 0 71.978666z m157.184-557.098666a35.968 35.968 0 0 0-36.010666-36.010667H387.84a35.968 35.968 0 1 0 0 72.021333h85.205333V504.448H413.013333a35.968 35.968 0 1 0 0 72.021333h96c19.882667 0 35.968-16.128 35.968-36.010666v-350.122667h85.205334c19.925333 0 36.010667-16.085333 36.010666-35.968z"  horiz-adv-x="1024" />

    
    <glyph glyph-name="Warning" unicode="&#59615;" d="M512 896C229.205333 896 0 666.794667 0 384s229.205333-512 512-512 512 229.205333 512 512S794.794667 896 512 896z m-40.021333-230.997333a39.978667 39.978667 0 1 0 80.042666 0v-369.024a39.978667 39.978667 0 1 0-80.042666 0V665.002667zM512 101.973333a44.928 44.928 0 0 0-45.013333 44.970667c0 24.917333 20.096 45.013333 45.013333 45.013333s45.013333-20.096 45.013333-45.013333c0-24.746667-20.096-44.970667-45.013333-44.970667z"  horiz-adv-x="1024" />

    
    <glyph glyph-name="Success" unicode="&#59616;" d="M512-128C229.248-128 0 101.248 0 384S229.248 896 512 896s512-229.248 512-512-229.248-512-512-512z m-59.050667 343.850667a40.362667 40.362667 0 0 1 27.818667 11.008l275.712 263.552a36.48 36.48 0 0 1 0 53.205333 40.618667 40.618667 0 0 1-55.68 0l-247.893333-236.885333-129.706667 123.989333a40.704 40.704 0 0 1-55.68 0 36.522667 36.522667 0 0 1 0-53.290667l157.568-150.570666c7.68-7.338667 17.749333-11.008 27.861333-11.008z"  horiz-adv-x="1024" />

    
    <glyph glyph-name="Close" unicode="&#59617;" d="M571.008 383.872l270.08 270.08a41.6 41.6 0 1 1-58.88 58.88L512 442.944 241.856 712.96a41.6 41.6 0 1 1-58.88-58.944l270.016-270.08-270.08-270.144a41.6 41.6 0 1 1 58.88-59.008L512 324.928l270.144-270.208c8.192-8.128 18.752-12.16 29.44-12.16a41.6 41.6 0 0 1 29.44 71.168l-270.016 270.08z"  horiz-adv-x="1024" />

    
    <glyph glyph-name="shaixuan" unicode="&#59618;" d="M266.4448 691.2l181.6576-207.6672a51.2 51.2 0 0 0 12.6976-33.792v-319.488l102.4 79.4624V449.8432a51.2 51.2 0 0 0 12.6976 33.792L757.5552 691.2H266.4448zM358.4 430.592L115.0976 708.7104A51.2 51.2 0 0 0 153.6 793.6h716.8a51.2 51.2 0 0 0 38.5024-84.992L665.6 430.6944v-245.9648a51.2 51.2 0 0 0-19.7632-40.448l-204.8-159.0272A51.2 51.2 0 0 0 358.4 25.6V430.592z"  horiz-adv-x="1024" />

    
    <glyph glyph-name="bianji" unicode="&#59619;" d="M176.384 2.816L431.530667 110.933333a35.84 35.84 0 0 1 11.093333 7.338667L872.96 548.693333a78.336 78.336 0 0 1 0.256 110.506667L787.370667 745.301333a78.250667 78.250667 0 0 1-110.592-0.256L246.357333 314.538667a34.645333 34.645333 0 0 1-7.338666-11.093334l-108.202667-255.146666a34.304 34.304 0 0 1 7.424-37.973334c9.216-9.386667 23.722667-13.568 38.144-7.509333z m555.52 687.104l0.256 0.170667 85.845333-85.845334-0.256-0.170666-67.157333-67.242667L664.746667 622.677333l67.242666 67.242667zM307.541333 265.301333l302.08 302.250667L695.466667 481.706667 393.386667 179.541333l-148.992-63.146666 63.146666 148.906666z"  horiz-adv-x="1024" />

    
    <glyph glyph-name="Unkonw" unicode="&#59620;" d="M512 896C229.205333 896 0 666.794667 0 384s229.205333-512 512-512 512 229.205333 512 512S794.794667 896 512 896z m-6.485333-812.586667a43.306667 43.306667 0 1 0 0 86.613334 43.306667 43.306667 0 0 0 0-86.613334z m185.770666 421.546667c-2.474667-46.250667-16.682667-82.773333-87.68-153.770667-36.010667-36.010667-58.709333-62.976-61.013333-86.698666a36.010667 36.010667 0 0 0-35.797333-32.469334c-1.194667 0-2.389333 0.085333-3.584 0.170667a36.053333 36.053333 0 0 0-32.298667 39.424c4.906667 49.92 41.472 90.197333 81.792 130.474667 64.512 64.512 65.578667 84.992 66.688 106.709333a92.586667 92.586667 0 0 1-26.410667 69.12 112.341333 112.341333 0 0 1-81.194666 34.56h-0.170667a107.690667 107.690667 0 0 1-107.306667-107.52 35.968 35.968 0 1 0-72.021333 0 178.346667 178.346667 0 0 0 52.394667 126.848 178.261333 178.261333 0 0 0 126.72 52.693333 184.746667 184.746667 0 0 0 133.802666-57.002666 163.413333 163.413333 0 0 0 46.08-122.496z"  horiz-adv-x="1024" />

    
    <glyph glyph-name="jiazai" unicode="&#59621;" d="M905.856 384m-108.992 0a108.992 108.992 0 1 1 217.984 0 108.992 108.992 0 1 1-217.984 0ZM790.45208 105.542815m-77.974079 77.974079a110.272 110.272 0 1 1 155.948158-155.948158 110.272 110.272 0 1 1-155.948158 155.948158ZM512.064-9.792m0 111.616a111.616 111.616 0 1 1 0-223.232 111.616 111.616 0 1 1 0 223.232ZM233.557038 105.533645m79.829527 79.829528a112.896 112.896 0 1 1-159.659055-159.659055 112.896 112.896 0 1 1 159.659055 159.659055ZM118.144 384m114.24 0a114.24 114.24 0 1 1-228.48 0 114.24 114.24 0 1 1 228.48 0ZM233.446767 662.517548m74.263183-74.263182a105.024 105.024 0 1 1-148.526366 148.526365 105.024 105.024 0 1 1 148.526366-148.526365ZM511.936 777.792m0-106.368a106.368 106.368 0 1 1 0 212.736 106.368 106.368 0 1 1 0-212.736ZM790.503783 662.475894m-76.118631-76.118631a107.648 107.648 0 1 1 152.237261 152.237262 107.648 107.648 0 1 1-152.237261-152.237262Z"  horiz-adv-x="1024" />

    
    <glyph glyph-name="fenxiang" unicode="&#59629;" d="M817.664 736H704a32 32 0 0 0 0 64h192a32 32 0 0 0 32-32v-192a32 32 0 1 0-64 0V691.84l-470.72-470.72a32 32 0 1 0-45.248 45.312L817.664 736z m46.336-704V352.64a32 32 0 1 0 64 0V0a32 32 0 0 0-32-32H128a32 32 0 0 0-32 32V768a32 32 0 0 0 32 32h353.472a32 32 0 0 0 0-64H160v-704h704z"  horiz-adv-x="1024" />

    
    <glyph glyph-name="wuquanxian" unicode="&#59630;" d="M816.52761 602.961171C816.277854 743.324098 717.923902 863.781463 581.681951 890.405463 445.689756 917.129366 309.947317 842.627122 257.848195 712.579122c-52.074146-130.072976-5.74439-279.227317 110.36722-355.777561a7.717463 7.717463 0 1 0 0-13.486829 468.617366 468.617366 0 0 1-212.592391-158.395317A464.49639 464.49639 0 0 1 63.113366-94.982244c0-17.707707 14.236098-32.093659 31.744-32.093658a31.96878 31.96878 0 0 1 31.719024 32.093658c-0.549463 222.183024 176.802341 402.981463 396.487805 404.005464h5.994146c158.695024 2.622439 286.120585 133.144976 286.794927 293.71317l0.674342 0.249756z m-289.617171-229.825561c-107.894634-0.674341-201.178537 76.00078-222.757463 182.971317-21.553951 106.970537 34.691122 214.540488 134.318829 256.574439 99.502829 42.058927 214.615415 7.093073 274.806634-83.543415 60.091317-90.611512 48.452683-211.643317-27.772878-288.917853a222.657561 222.657561 0 0 0-158.595122-67.084488z m408.775805-258.747317h-29.47122v69.257366a105.496976 105.496976 0 0 1-50.151024 95.906341 102.749659 102.749659 0 0 1-107.195317 0 105.496976 105.496976 0 0 1-50.151024-95.906341v-69.257366h-29.47122c-14.236098 0-25.649951-11.638634-25.649951-25.924683v-189.489951c0-14.410927 11.513756-25.949659 25.624975-25.949659h266.489757c14.11122 0 25.624976 11.66361 25.624975 25.949659v189.489951c0 14.286049-11.413854 25.924683-25.649951 25.924683z m-114.638049-133.694439v-53.272976a4.545561 4.545561 0 0 0-1.348683-3.196878 4.49561 4.49561 0 0 0-3.171902-1.373659h-27.223415a4.445659 4.445659 0 0 0-4.395707 4.570537v53.272976a41.859122 41.859122 0 0 0-21.578927 46.854244 41.309659 41.309659 0 0 0 40.085854 31.993756c19.106341 0 35.715122-13.237073 40.110829-31.993756 4.395707-18.731707-4.520585-38.187707-21.578927-46.854244h-0.899122z m45.280781 133.694439h-126.726244v67.334244c0 35.415415 28.347317 64.11239 63.363122 64.11239s63.363122-28.696976 63.363122-64.11239v-67.334244z"  horiz-adv-x="1024" />

    
    <glyph glyph-name="fangdax" unicode="&#59670;" d="M426.666667 448v128a42.666667 42.666667 0 1 0 85.333333 0v-128h128a42.666667 42.666667 0 0 0 0-85.333333h-128v-128a42.666667 42.666667 0 0 0-85.333333 0v128H298.666667a42.666667 42.666667 0 0 0 0 85.333333h128z m372.778666-291.669333l166.4-166.4a42.666667 42.666667 0 1 0-60.373333-60.373334l-166.4 166.485334A424.917333 424.917333 0 0 0 469.333333 0C233.685333 0 42.666667 191.018667 42.666667 426.666667S233.685333 853.333333 469.333333 853.333333s426.666667-191.018667 426.666667-426.666666a424.917333 424.917333 0 0 0-96.554667-270.336zM469.333333 85.333333a341.333333 341.333333 0 1 1 0 682.666667 341.333333 341.333333 0 0 1 0-682.666667z"  horiz-adv-x="1024" />

    
    <glyph glyph-name="suoxiaox" unicode="&#59671;" d="M799.445333 156.330667l166.4-166.4a42.666667 42.666667 0 1 0-60.373333-60.373334l-166.4 166.485334A424.917333 424.917333 0 0 0 469.333333 0C233.685333 0 42.666667 191.018667 42.666667 426.666667S233.685333 853.333333 469.333333 853.333333s426.666667-191.018667 426.666667-426.666666a424.917333 424.917333 0 0 0-96.554667-270.336zM469.333333 85.333333a341.333333 341.333333 0 1 1 0 682.666667 341.333333 341.333333 0 0 1 0-682.666667z m-170.666666 277.333334a42.666667 42.666667 0 0 0 0 85.333333h341.333333a42.666667 42.666667 0 0 0 0-85.333333H298.666667z"  horiz-adv-x="1024" />

    
    <glyph glyph-name="zuojiantou" unicode="&#59678;" d="M655.488 384L338.688 67.2a64 64 0 0 1 90.624-90.496l361.984 361.984a64 64 0 0 1 0 90.624L429.312 791.296a64 64 0 0 1-90.624-90.496L655.488 384z"  horiz-adv-x="1024" />

    
    <glyph glyph-name="xiajiantou" unicode="&#59679;" d="M512 240.512l316.8 316.8a64 64 0 0 0 90.496-90.624L557.312 104.704a64 64 0 0 0-90.624 0L104.704 466.688a64 64 0 0 0 90.496 90.624L512 240.512z"  horiz-adv-x="1024" />

    
    <glyph glyph-name="Info_Line" unicode="&#59681;" d="M512 896a512 512 0 0 1-512-512 512 512 0 0 1 512-512 512 512 0 0 1 512 512 512 512 0 0 1-512 512z m311.04-823.04a437.76 437.76 0 0 0-139.84-94.336c-54.208-23.04-111.808-34.624-171.2-34.624a437.44 437.44 0 0 0-311.04 128.768 437.76 437.76 0 0 0-94.336 139.904A436.608 436.608 0 0 0 72 384a437.44 437.44 0 0 0 128.832 311.04 437.76 437.76 0 0 0 139.84 94.336A436.608 436.608 0 0 0 512 824a437.44 437.44 0 0 0 311.04-128.832 437.76 437.76 0 0 0 94.336-139.84c23.04-54.336 34.624-111.936 34.624-171.328a437.44 437.44 0 0 0-128.896-311.04zM508.992 711.488a35.968 35.968 0 1 0 0-71.936 35.968 35.968 0 0 0 0 71.936zM666.24 154.368c0-19.84-16.128-35.968-36.032-35.968H387.776a35.968 35.968 0 1 0 0 72h85.248V504.512h-60.032a35.968 35.968 0 1 0 0 72h96c19.904 0 36.032-16.128 36.032-36.032v-350.08h85.12c19.968 0 36.032-16.128 36.032-36.032z"  horiz-adv-x="1024" />

    
    <glyph glyph-name="Unkonw_Linex" unicode="&#59687;" d="M512 896a512 512 0 0 1-512-512 512 512 0 0 1 512-512 512 512 0 0 1 512 512 512 512 0 0 1-512 512z m311.04-823.04a437.76 437.76 0 0 0-139.84-94.336c-54.208-23.04-111.808-34.624-171.2-34.624a437.44 437.44 0 0 0-311.04 128.768 437.76 437.76 0 0 0-94.336 139.904A436.608 436.608 0 0 0 72 384a437.44 437.44 0 0 0 128.832 311.04 437.76 437.76 0 0 0 139.84 94.336A436.608 436.608 0 0 0 512 824a437.44 437.44 0 0 0 311.04-128.832 437.76 437.76 0 0 0 94.336-139.84c23.04-54.336 34.624-111.936 34.624-171.328a437.44 437.44 0 0 0-128.896-311.04zM506.88 232.064a36.032 36.032 0 0 0-35.84 39.616c4.8 49.856 41.408 90.176 81.728 130.432C617.216 466.688 618.24 487.232 619.392 508.928a92.608 92.608 0 0 1-26.368 69.12 112.384 112.384 0 0 1-81.28 34.56h-0.128a107.648 107.648 0 0 1-107.328-107.52 35.968 35.968 0 1 0-72 0c0 47.936 18.56 92.928 52.416 126.784a178.24 178.24 0 0 0 126.72 52.736 184.768 184.768 0 0 0 133.76-56.96c32.128-33.856 48.512-77.376 46.08-122.56-2.496-46.272-16.64-82.816-87.68-153.792-35.968-35.968-58.688-62.976-60.992-86.72a36.032 36.032 0 0 0-35.84-32.448z m-44.608-105.344a43.328 43.328 0 1 1 86.592 0 43.328 43.328 0 0 1-86.592 0z"  horiz-adv-x="1024" />

    
    <glyph glyph-name="Warning_Linex" unicode="&#59688;" d="M683.2 789.504a440.448 440.448 0 0 0 234.24-234.24c22.976-54.272 34.56-111.872 34.56-171.264a437.44 437.44 0 0 0-128.768-311.04 437.76 437.76 0 0 0-139.904-94.336c-54.336-23.04-111.936-34.624-171.328-34.624a437.44 437.44 0 0 0-311.04 128.768 437.76 437.76 0 0 0-94.336 139.904A436.608 436.608 0 0 0 72 384a437.44 437.44 0 0 0 128.832 311.04 437.76 437.76 0 0 0 139.84 94.336A436.608 436.608 0 0 0 512 824c59.392 0 116.992-11.584 171.2-34.56zM0 384a512 512 0 0 1 512-512 512 512 0 0 1 512 512 512 512 0 0 1-512 512 512 512 0 0 1-512-512z m512-128a40 40 0 0 0-40 40V665.024a40 40 0 1 0 80 0v-369.024c0-22.08-17.92-40-40-40z m-44.992-108.992a44.992 44.992 0 1 1 89.984 0 44.992 44.992 0 0 1-89.984 0z"  horiz-adv-x="1024" />

    
    <glyph glyph-name="shezhi" unicode="&#59689;" d="M975.04 458.496l-3.904 24.704-75.52 25.216a398.592 398.592 0 0 1-24.576 59.392l35.648 71.04-14.656 20.416a480.96 480.96 0 0 1-105.28 105.088l-20.288 14.592-71.104-35.584c-19.2 9.728-39.04 17.92-59.392 24.576L610.88 843.136l-24.512 3.84A465.92 465.92 0 0 1 512 853.376a467.84 467.84 0 0 1-74.432-6.528l-24.704-3.904-25.152-75.52a417.792 417.792 0 0 1-59.392-24.512l-71.04 35.712-20.224-14.592A471.68 471.68 0 0 1 131.84 658.944l-14.592-20.352 35.584-71.104c-9.664-19.072-17.92-38.912-24.512-59.264L52.928 483.2l-3.84-24.704c-4.352-27.264-6.4-51.52-6.4-74.496 0-23.04 2.048-47.36 6.4-74.368l3.84-24.704 75.52-25.216c6.528-20.416 14.784-40.32 24.576-59.392l-35.392-70.912 14.592-20.16c15.232-21.184 30.976-39.808 48.064-56.96 16-16.064 34.56-31.808 56.96-48.192l20.224-14.592 71.04 35.584c19.2-9.792 39.04-18.112 59.392-24.576l25.088-75.52 24.704-3.968c27.072-4.288 51.392-6.4 74.368-6.4a471.04 471.04 0 0 1 74.368 6.4l24.704 3.904 25.152 75.52c20.16 6.656 40 14.848 59.264 24.512l71.168-35.584 20.224 14.592c22.144 16 40.768 31.68 56.96 48.192 16.768 16.768 32.384 35.456 48 56.96l14.72 20.416-35.648 71.04c9.792 19.072 17.984 38.976 24.576 59.456l75.456 25.152 3.904 24.704c4.352 27.072 6.4 51.392 6.4 74.304a416.448 416.448 0 0 1-6.272 74.304zM896 384.64v-0.512c0-13.44-0.96-27.2-2.624-41.856l-35.392-11.84-31.296-10.56-9.664-31.488c-5.504-18.24-12.8-35.904-21.76-52.736l-15.36-29.056 31.36-62.72a362.688 362.688 0 0 0-27.776-31.36l-0.192-0.256a330.752 330.752 0 0 0-31.168-27.52l-62.528 31.232-28.928-15.104a335.488 335.488 0 0 0-53.44-22.08L576 68.992l-10.176-30.976-11.776-35.392a339.84 339.84 0 0 0-83.84 0l-11.712 35.392-10.304 31.296-31.488 9.664a300.288 300.288 0 0 0-52.736 21.76l-29.184 15.168-29.44-14.72-33.28-16.64a355.264 355.264 0 0 0-59.2 59.2l31.168 62.528-15.168 28.992a307.456 307.456 0 0 0-21.952 52.992l-9.664 31.488-66.56 22.08a340.032 340.032 0 0 0 0 83.84l66.368 22.08 9.664 31.36c5.632 18.112 12.992 36.032 21.888 53.248l15.232 28.992-14.592 29.248-16.64 33.28a385.28 385.28 0 0 0 59.2 59.264l62.592-31.36 29.12 15.36c16.768 8.768 34.688 16.192 53.12 21.952L448 698.88l10.368 31.104 11.776 35.392c15.104 1.728 28.8 2.624 41.792 2.624 13.44 0 27.2-0.896 41.792-2.56l22.208-66.304 31.296-9.728c18.176-5.696 36.096-13.12 53.12-21.888l29.056-15.232 62.464 31.36c21.76-17.536 41.792-37.44 59.52-59.328l-31.232-62.464 14.976-28.928c8.96-17.216 16.448-35.2 22.144-53.504l9.792-31.296 31.104-10.368 35.328-11.84c1.92-14.976 2.752-28.48 2.56-41.28zM512 554.688A170.88 170.88 0 0 1 341.312 384 170.88 170.88 0 0 1 512 213.312 170.88 170.88 0 0 1 682.688 384 170.88 170.88 0 0 1 512 554.688z m60.288-231.04a84.8 84.8 0 0 0-60.288-24.96 84.48 84.48 0 0 0-60.288 24.96A84.8 84.8 0 0 0 426.688 384c0 22.784 8.832 44.16 24.96 60.288s37.568 25.024 60.352 25.024 44.16-8.832 60.288-24.96a84.928 84.928 0 0 0 0-120.64z"  horiz-adv-x="1024" />

    
    <glyph glyph-name="shanchu" unicode="&#59690;" d="M704 704V768H320v-64h384zM224 704H256V768a64 64 0 0 0 64 64h384a64 64 0 0 0 64-64v-64h160a32 32 0 1 0 0-64h-64v-640a64 64 0 0 0-64-64h-576a64 64 0 0 0-64 64V640h-64a32 32 0 0 0 0 64h128z m0-64v-640h576V640h-576z m192-128a32 32 0 0 0 32-32v-320a32 32 0 1 0-64 0v320a32 32 0 0 0 32 32z m192 0a32 32 0 0 0 32-32v-320a32 32 0 1 0-64 0v320a32 32 0 0 0 32 32z"  horiz-adv-x="1024" />

    
    <glyph glyph-name="ARzhizuo" unicode="&#59691;" d="M544.896 374.4l-1.28-207.936a32 32 0 1 0-64 0.384l1.28 205.504-166.144 83.648a32 32 0 1 0 28.8 57.152l167.36-84.224 169.728 84.288a32 32 0 1 0 28.48-57.28L544.896 374.336zM512 96c0.64 0 1.6 0.256 2.048 0.448l252.864 143.168c0.704 0.384 1.088 1.024 1.088 1.28V527.232c0 0.32-0.384 0.96-1.088 1.344L514.176 671.552a5.888 5.888 0 0 1-4.224 0.064L257.088 528.512c-0.64-0.384-1.088-1.088-1.088-1.28v-286.272c0-0.32 0.384-0.96 1.088-1.344l252.736-143.04c0.64-0.384 1.408-0.576 2.176-0.576z m0-64c-11.712 0-23.296 3.008-33.536 8.768l-252.928 143.104A65.792 65.792 0 0 0 192 240.96V527.168c0 23.424 12.864 45.376 33.536 57.024l252.928 143.168c20.352 11.52 46.656 11.52 67.072 0l252.928-143.168c20.672-11.648 33.536-33.536 33.536-56.96v-286.272c0-23.552-12.864-45.376-33.536-57.088l-252.928-143.104c-10.24-5.632-21.76-8.768-33.536-8.768z"  horiz-adv-x="1024" />

    
    <glyph glyph-name="Dxuanran" unicode="&#59692;" d="M787.904 170.752a238.336 238.336 0 0 0-1.088-1.536c-25.088-35.328-44.352-42.24-47.936-43.328-3.52-1.088-14.336 1.6-14.336 8.512V293.184c0 6.336 5.12 11.456 11.392 11.456h56.32a291.2 291.2 0 0 1-348.416 362.56 28.8 28.8 0 0 0-13.44 56 348.8 348.8 0 0 0 357.504-552.448zM254.08 617.152c16.576 17.536 28.352 21.76 31.04 22.592 3.584 1.024 14.4-1.6 14.4-8.512V472.32c0-6.272-5.12-11.392-11.456-11.392h-56.96a291.2 291.2 0 0 1 342.4-361.664 28.8 28.8 0 0 0 12.096-56.32A348.8 348.8 0 0 0 247.872 611.84a28.8 28.8 0 0 0 6.144 5.312z m262.528-206.08l145.792 87.04a25.6 25.6 0 0 0 38.72-21.952v-192.32a25.6 25.6 0 0 0-12.864-22.208l-163.456-93.888a25.6 25.6 0 0 0-32.832 6.336L338.624 267.968a25.6 25.6 0 0 0-12.224 21.824V478.4a25.6 25.6 0 0 0 38.592 22.08l151.552-89.344z m21.056-47.04v-129.856l112.256 64.512V431.04L537.6 364.032z m-160-59.904l108.8-66.624V369.472L377.6 433.6v-129.472zM515.264 546.112L365.12 456.448a25.6 25.6 0 1 0-26.24 43.968l163.456 97.536a25.6 25.6 0 0 0 26.496-0.128l160-97.984a25.6 25.6 0 0 0-26.752-43.648L515.2 546.112z"  horiz-adv-x="1024" />

    
    <glyph glyph-name="Dqingliang" unicode="&#59694;" d="M479.68 237.248l-307.2 235.968a32 32 0 0 0 0 50.752L492.16 770.24a32 32 0 0 0 39.04 0l320.32-246.272c16.64-12.8 16.64-37.76 0.128-50.56l-45.376-35.392a32 32 0 1 0-39.296 50.496l12.736 9.92-235.776 181.376-0.256-119.04 307.84-236.992a32 32 0 0 0 0-50.752L531.2 27.264a32 32 0 0 0-39.04 0l-319.68 245.76a32 32 0 0 0-0.704 50.176l49.088 40.064a32 32 0 1 0 40.512-49.6l-17.856-14.528 236.16-181.568v119.68z m64-1.408v-118.4l235.84 180.992-267.776 206.208-100.608-77.696a32 32 0 0 0-39.104 50.688l107.648 83.2 0.256 119.232L244.48 498.56l268.032-205.888 91.456 71.04a32 32 0 0 0 39.296-50.56l-99.584-77.376z"  horiz-adv-x="1024" />

    
    <glyph glyph-name="jinhangzhong" unicode="&#59695;" d="M512 822.857143a438.857143 438.857143 0 1 1 0-877.714286A438.857143 438.857143 0 0 1 512 822.857143z m152.868571-615.350857l-12.946285-12.946286a27.428571 27.428571 0 0 0-38.765715 0l-134.582857 134.582857a27.355429 27.355429 0 0 0-20.48 26.404572v274.285714c0 15.140571 12.361143 27.428571 27.501715 27.428571h18.285714c15.140571 0 27.428571-12.288 27.428571-27.428571v-250.002286L664.868571 246.272a27.428571 27.428571 0 0 0 0-38.765714z"  horiz-adv-x="1024" />

    
    <glyph glyph-name="yiwancheng" unicode="&#59696;" d="M512-54.857143A438.857143 438.857143 0 1 0 512 822.857143a438.857143 438.857143 0 0 0 0-877.714286z m-50.614857 253.293714a32.768 32.768 0 0 1 23.844571 10.532572l236.324572 250.953143a37.449143 37.449143 0 0 1 0 50.688 32.329143 32.329143 0 0 1-47.762286 0L461.385143 285.037714 350.208 403.017143a32.402286 32.402286 0 0 1-47.762286 0 37.522286 37.522286 0 0 1 0-50.761143l135.021715-143.36c6.582857-7.021714 15.213714-10.532571 23.917714-10.532571z"  horiz-adv-x="1024" />

    
    <glyph glyph-name="xiazai" unicode="&#59697;" d="M547.2 274.304l163.712 166.4a35.2 35.2 0 0 0 50.176-49.408l-220.416-224a35.2 35.2 0 0 0-49.792-0.384l-227.584 224a35.2 35.2 0 1 0 49.408 50.176L476.8 279.552V800a35.2 35.2 0 0 0 70.4 0v-525.696z m345.6-18.304a35.2 35.2 0 0 0 70.4 0v-256a35.2 35.2 0 0 0-35.2-35.2h-832A35.2 35.2 0 0 0 60.8 0v256a35.2 35.2 0 0 0 70.4 0v-220.8h761.6V256z"  horiz-adv-x="1024" />

    
    <glyph glyph-name="yulan" unicode="&#59698;" d="M512.0704 736c135.424 0 259.584-63.68 369.984-168.832a921.472 921.472 0 0 0 127.872-151.68c4.608-7.04 7.808-12.16 9.6-15.04a32 32 0 0 0 0-32.896 814.08 814.08 0 0 0-36.352-52.736 920.64 920.64 0 0 0-101.056-113.984C771.7184 95.67999999999995 647.5584 32 512.0704 32s-259.648 63.68-370.048 168.832A920.64 920.64 0 0 0 14.1504 352.51199999999994a420.16 420.16 0 0 0-9.6 15.04 32 32 0 0 0 0 32.896 814.08 814.08 0 0 0 36.352 52.736c29.12 38.848 62.912 77.696 101.056 113.984C252.4224 672.3199999999999 376.5824 736 512.0704 736z m419.84-321.216a858.048 858.048 0 0 1-93.952 106.048C738.3104 615.6800000000001 628.4864 672 512.0704 672c-116.48 0-226.368-56.32-325.952-151.168A857.216 857.216 0 0 1 70.1504 384a857.216 857.216 0 0 1 116.032-136.832C285.6384 152.32000000000005 395.5904 96 512.0704 96c116.48 0 226.368 56.32 325.952 151.168A857.216 857.216 0 0 1 953.9904 384c-5.76 8.448-13.056 18.88-22.016 30.784zM512.0704 224a160 160 0 1 0 0 320 160 160 0 0 0 0-320z m0 64a96 96 0 1 1 0 192 96 96 0 0 1 0-192z"  horiz-adv-x="1024" />

    
    <glyph glyph-name="fabu" unicode="&#59700;" d="M475.744 215.10400000000004V16a25.6 25.6 0 1 0-51.2 0v229.44a25.6 25.6 0 0 0 6.848 17.44L816.224 676.384 179.584 363.39200000000005l161.952-53.312a25.6 25.6 0 0 0-16-48.64L104 334.36800000000005a25.6 25.6 0 0 0-3.296 47.296l800 393.28a25.6 25.6 0 0 0 36.48-27.584l-113.568-615.36a25.6 25.6 0 0 0-33.12-19.712l-314.752 102.816zM868.48 657.408L499.68 261.12l278.912-91.072 89.92 487.36z"  horiz-adv-x="1024" />

    
    <glyph glyph-name="jianshi" unicode="&#59701;" d="M785.984 127.96799999999996l78.976-79.008a24 24 0 0 0-33.92-33.92L752 94.01599999999996a184 184 0 1 0 33.92 33.92zM610.432 728H224a8 8 0 0 1-8-8v-672c0-4.416 3.584-8 8-8h289.6a24 24 0 1 0 0-48H224a56 56 0 0 0-56 56v672c0 30.912 25.088 56 56 56h409.088a23.936 23.936 0 0 0 3.04 0h15.36l198.368-222.464a26.112 26.112 0 0 0 0.16-0.192l5.984-6.72v-7.488a23.744 23.744 0 0 0 0-2.976v-94.08a24 24 0 0 0-48 0v71.424h-141.568a56 56 0 0 0-56 56V728z m48-158.496c0-4.416 3.584-8 8-8h110.848l-118.848 129.024v-121.024zM640 104a136 136 0 1 1 0 272 136 136 0 0 1 0-272z"  horiz-adv-x="1024" />

    
    <glyph glyph-name="xiuding" unicode="&#59702;" d="M822.4 412.608a25.6 25.6 0 1 0 51.2 0V96a89.6 89.6 0 0 0-89.6-89.6h-544A89.6 89.6 0 0 0 150.4 96V672a89.6 89.6 0 0 0 89.6 89.6h316.288a25.6 25.6 0 1 0 0-51.2H240A38.4 38.4 0 0 1 201.6 672v-576a38.4 38.4 0 0 1 38.4-38.4h544a38.4 38.4 0 0 1 38.4 38.4v316.608z m-401.696-206.272a27.2 27.2 0 0 0-41.408 35.328l423.04 496a27.2 27.2 0 1 0 41.408-35.328l-423.04-496z"  horiz-adv-x="1024" />

    
    <glyph glyph-name="anniutianjia" unicode="&#59703;" d="M464 432v224a48 48 0 0 0 96 0v-224h224a48 48 0 1 0 0-96h-224v-224a48 48 0 1 0-96 0v224h-224a48 48 0 0 0 0 96h224z"  horiz-adv-x="1024" />

    
    <glyph glyph-name="ECDPlogo" unicode="&#59704;" d="M1319.38304 518.38976h-79.50336l0.02048 0.3072 8.45824 70.10304h112.51712c100.02432 0 144.13824-41.86112 132.3008-125.46048-11.8784-81.18272-59.24864-124.25216-142.15168-129.14688h-57.26208L1275.98592 179.2h-77.0048l36.59776 303.5136h79.48288l-9.85088-81.2032c10.58816-0.57344 11.6736 0.12288 22.1184-0.90112 52.59264-5.20192 80.26112 15.9744 82.90304 62.73024 6.57408 39.3216-15.7696 57.7536-67.11296 55.35744h-23.69536l-0.04096-0.3072z m-347.648 0.8192l-33.46432-266.62912h41.34912c70.8608-2.41664 111.5136 41.984 122.04032 133.3248 13.1072 91.25888-16.42496 135.68-88.59648 133.3248h-41.32864z m-120.09472-331.48928l49.21344 399.9744h124.02688c120.7296-2.43712 173.8752-69.71392 159.45728-201.78944-18.39104-132.13696-87.94112-198.18496-208.67072-198.18496h-124.02688zM842.3424 454.2464h-86.97856c4.13696 46.6944-17.96096 71.20896-66.27328 73.56416-44.17536-2.3552-74.5472-50.23744-91.09504-143.60576-9.68704-93.42976 7.5776-140.12416 51.75296-140.12416 37.56032 0 63.42656 14.82752 77.6192 44.4416 4.096 8.47872 7.20896 18.20672 9.35936 29.12256h86.97856c-17.96096-86.4256-78.0288-129.59744-180.16256-129.59744-103.5264 2.29376-147.72224 67.70688-132.52608 196.15744 20.70528 130.74432 82.82112 198.4512 186.368 203.1616 102.15424-2.3552 150.44608-46.75584 144.95744-133.12zM204.8 186.92096l51.69152 401.57184h256.4096l-6.18496-68.73088H333.0048l-12.41088-94.06464h161.30048l-10.3424-65.1264H310.272l-12.3904-108.544h179.89632l-10.3424-65.10592H204.8z"  horiz-adv-x="1720" />

    
    <glyph glyph-name="PDlogo" unicode="&#59705;" d="M511.34464 319.91808l16.87552 86.016c3.13344 15.9744-3.42016 31.21152-15.5648 41.24672l-16.87552-86.016c-3.13344-15.9744 3.42016-31.21152 15.5648-41.24672z m-121.5488-51.15904a58.75712 58.75712 0 0 0-3.87072 10.01472h37.13024c3.25632 0 5.8368 2.6624 5.12 5.69344-0.512 2.21184-2.82624 3.6864-5.3248 3.6864h-45.30176c-2.048 0-3.72736 1.45408-3.82976 3.29728v0.08192c-0.1024 1.98656 1.67936 3.66592 3.91168 3.66592h24.49408c3.072 0 5.5296 2.37568 5.2224 5.18144-0.28672 2.43712-2.74432 4.21888-5.46816 4.21888H352.8704c-2.39616 0-4.21888 1.9456-3.80928 4.05504l0.02048 0.1024c0.32768 1.65888 1.92512 2.8672 3.80928 2.8672h72.45824c3.25632 0 5.8368 2.68288 5.12 5.71392-0.512 2.19136-2.82624 3.6864-5.3248 3.6864h-46.73536c-2.51904 0-4.42368 2.12992-3.7888 4.38272 0.45056 1.57696 2.1504 2.6624 3.97312 2.6624h33.62816c3.23584 0 5.8368 2.6624 5.12 5.69344-0.512 2.19136-2.82624 3.6864-5.34528 3.6864h-25.2928c-2.51904 0-4.42368 2.12992-3.7888 4.38272 0.45056 1.59744 2.12992 2.6624 3.97312 2.6624h39.7312c3.23584 0 5.81632 2.6624 5.12 5.69344-0.53248 2.19136-2.84672 3.6864-5.34528 3.6864h-58.69568c-2.53952 0-4.42368 2.12992-3.7888 4.38272 0.43008 1.59744 2.12992 2.6624 3.95264 2.6624h42.65984c3.23584 0 5.8368 2.6624 5.12 5.69344-0.512 2.21184-2.82624 3.6864-5.3248 3.6864h-20.52096c-2.4576 0-4.3008 1.98656-3.87072 4.13696 0.32768 1.67936 1.96608 2.90816 3.87072 2.90816h24.08448c3.25632 0 7.20896 2.6624 6.49216 5.69344-0.512 2.21184-2.82624 3.6864-5.3248 3.6864h-29.75744c-2.43712 0-4.28032 1.98656-3.85024 4.13696 0.32768 1.67936 1.9456 2.90816 3.85024 2.90816h30.47424c3.23584 0 5.8368 2.68288 5.12 5.69344-0.512 2.21184-2.82624 3.70688-5.34528 3.70688h-14.86848c-2.4576 0-4.3008 1.96608-3.87072 4.11648 0.32768 1.67936 1.96608 2.90816 3.87072 2.90816h25.7024c3.072 0 5.5296 2.37568 5.2224 5.18144-0.26624 2.4576-2.72384 4.21888-5.46816 4.21888h-13.12768c-2.43712 0-4.3008 1.96608-3.85024 4.11648 0.32768 1.69984 1.9456 2.90816 3.85024 2.90816h12.288c3.2768 0 5.85728 2.68288 5.14048 5.71392-0.512 2.19136-2.82624 3.6864-5.34528 3.6864h-14.5408l4.54656 23.08096h-50.9952l-37.376-190.34112h63.05792z m244.40832 229.5808c5.46816-11.0592 7.49568-23.67488 4.93568-36.6592l-30.26944-153.7024h51.03616l37.35552 190.3616h-63.05792z m-42.1888-267.38688c-10.73152-23.3472-36.33152-39.23968-65.49504-39.23968H316.45696L305.93024 138.24H204.8l10.69056 54.39488h0.2048l57.30304 291.08224c5.98016 30.33088 35.38944 52.4288 69.77536 52.4288h89.1904c10.752 23.3472 36.352 39.23968 65.51552 39.23968H707.3792L718.06976 629.76H819.2l-10.69056-54.3744-57.50784-292.00384c-5.98016-30.33088-35.38944-52.4288-69.77536-52.4288h-89.21088z m-144.15872 113.02912c2.12992 0.28672 3.8912 1.8432 4.1984 3.76832 0.53248 3.072-2.37568 5.65248-5.79584 5.18144-2.12992-0.28672-3.87072-1.8432-4.1984-3.74784-0.512-3.072 2.37568-5.67296 5.79584-5.20192z m-11.12064 48.04608c2.12992 0.28672 3.8912 1.8432 4.1984 3.76832 0.512 3.072-2.37568 5.65248-5.79584 5.18144-2.12992-0.28672-3.87072-1.8432-4.1984-3.74784-0.512-3.072 2.37568-5.67296 5.79584-5.20192z"  horiz-adv-x="1024" />

    
    <glyph glyph-name="gerenxinxi" unicode="&#59706;" d="M512-128C229.248-128 0 101.24800000000005 0 384S229.248 896 512 896s512-229.248 512-512-229.248-512-512-512z m-85.248 517.376A234.752 234.752 0 0 1 277.333333 170.66666699999996a21.333333 21.333333 0 1 1 42.666667 0 192 192 0 0 0 292.352 163.712 21.333333 21.333333 0 1 1 22.357333 36.352 233.813333 233.813333 0 0 1-37.461333 18.645333 149.333333 149.333333 0 1 1-170.496 0zM512 405.333333a106.666667 106.666667 0 1 0 0 213.333334 106.666667 106.666667 0 0 0 0-213.333334z m21.333333-106.666666a21.333333 21.333333 0 1 1 0-42.666667h170.666667a21.333333 21.333333 0 1 1 0 42.666667h-170.666667z m0-85.333334a21.333333 21.333333 0 1 1 0-42.666666h170.666667a21.333333 21.333333 0 1 1 0 42.666666h-170.666667z"  horiz-adv-x="1024" />

    
    <glyph glyph-name="qunzu" unicode="&#59707;" d="M512-128C229.248-128 0 101.24800000000005 0 384S229.248 896 512 896s512-229.248 512-512-229.248-512-512-512z m100.565333 466.304a156.970667 156.970667 0 0 0 156.970667-156.970667 21.333333 21.333333 0 1 1 42.666667 0 199.68 199.68 0 0 1-118.826667 182.613334 140.202667 140.202667 0 0 1-80.810667 254.72 21.333333 21.333333 0 1 1 0-42.666667 97.536 97.536 0 0 0 0-195.029333 21.333333 21.333333 0 1 1 0-42.666667z m-259.114666 25.6A199.68 199.68 0 0 1 234.666667 181.33333300000004a21.333333 21.333333 0 1 1 42.666666 0 156.970667 156.970667 0 0 0 313.898667 0 21.333333 21.333333 0 1 1 42.666667 0 199.68 199.68 0 0 1-118.784 182.613334 140.202667 140.202667 0 1 1-161.621334 0z m80.853333 17.066667a97.536 97.536 0 1 0 0 195.029333 97.536 97.536 0 0 0 0-195.029333z"  horiz-adv-x="1024" />

    
    <glyph glyph-name="zhuxiao" unicode="&#59708;" d="M512-128C229.248-128 0 101.24800000000005 0 384S229.248 896 512 896s512-229.248 512-512-229.248-512-512-512z m205.098667 533.333333H469.333333a21.333333 21.333333 0 1 1 0-42.666666h246.613334l-48.469334-49.024a21.333333 21.333333 0 1 1 30.378667-29.952l85.333333 86.314666a21.333333 21.333333 0 0 1-0.213333 30.165334l-85.333333 84.352a21.333333 21.333333 0 1 1-29.952-30.378667l49.408-48.810667zM618.666667 233.89866700000005v-41.898667c0-12.074667-8.661333-21.333333-18.688-21.333333H360.064C349.994667 170.66666699999996 341.333333 179.92533300000002 341.333333 192v384c0 12.074667 8.661333 21.333333 18.688 21.333333h239.957334c10.026667 0 18.688-9.258667 18.688-21.333333v-42.666667a21.333333 21.333333 0 1 1 42.666666 0v42.666667c0 35.029333-27.136 64-61.354666 64H360.064C325.802667 640 298.666667 611.029333 298.666667 576v-384c0-35.029333 27.136-64 61.354666-64h239.957334c34.218667 0 61.354667 28.970667 61.354666 64v41.898667a21.333333 21.333333 0 1 1-42.666666 0z"  horiz-adv-x="1024" />

    
    <glyph glyph-name="ITchanpinxian" unicode="&#59717;" d="M907.264 768c29.12 0 52.736-22.912 52.736-51.136v-513.92a51.904 51.904 0 0 0-52.736-51.136H468.096l-78.08-128.256h243.968l-40.256 55.872h67.328l51.392-77.248a24.64 24.64 0 0 0 1.6-8.576c0-14.08-11.84-25.536-26.368-25.536h-351.36a25.984 25.984 0 0 0-26.368 25.6c0 2.944 0.64 5.76 1.6 8.512h-1.6l103.552 168.448c4.864 6.016 26.112 36.288 72.128 37.312h401.024a17.28 17.28 0 0 1 17.6 17.024V695.04a17.28 17.28 0 0 1-17.6 17.024H137.472a17.28 17.28 0 0 1-17.536-17.024v-470.08a17.28 17.28 0 0 1 17.536-17.024h211.2l-31.68-56.128h-200.32a51.904 51.904 0 0 0-52.672 51.2v513.92c0 28.16 23.616 51.072 52.736 51.072h790.528zM235.52 652.544c17.408-1.088 33.344-1.92 47.872-2.432a996.608 996.608 0 0 1 76.48 0c13.952 0.576 29.44 1.344 46.528 2.432v-24H400.64c-12.224 0-20.992-1.28-26.24-3.712a22.272 22.272 0 0 1-11.328-13.632c-1.92-5.504-3.392-16.32-4.288-32.512-0.832-16.128-1.28-45.184-1.28-87.168V382.08c0-25.088 0.448-42.432 1.408-52.096a57.408 57.408 0 0 1 5.248-21.248c2.496-4.416 6.656-7.616 12.48-9.6 5.888-1.92 14.592-2.88 26.176-2.88h6.656v-24a2846.72 2846.72 0 0 1-51.456 2.368c-14.72 0.576-27.264 0.832-37.568 0.832-9.408 0-21.632-0.256-36.48-0.832-14.976-0.512-32.32-1.28-52.032-2.368v24h6.656c11.904 0 20.8 0.96 26.688 2.88a19.136 19.136 0 0 1 11.968 9.6c2.688 4.992 4.48 13.12 5.568 24.384 1.088 11.328 1.6 31.808 1.6 61.44V550.464c0 22.016-0.448 37.44-1.408 46.208a51.584 51.584 0 0 1-5.248 19.584 20.48 20.48 0 0 1-12.16 9.344c-5.76 1.92-14.08 2.944-24.896 2.944H235.52v24z m285.184-356.352h9.856c11.904 0 20.672 1.28 26.176 3.84a24.448 24.448 0 0 1 12.224 13.76c1.792 4.928 3.008 17.024 3.712 36.224 0.768 19.2 1.088 54.72 1.088 106.624V609.088h-45.824c-27.904 0-47.04-3.904-57.344-11.712-10.24-7.808-17.408-22.848-21.312-45.056l-25.024 5.312c4.096 17.6 7.232 34.432 9.472 50.56 2.176 16 3.584 31.936 4.096 47.552 6.784-2.304 16.256-3.968 28.544-4.928 12.224-0.96 32.96-1.472 62.08-1.472h159.936c32.64 0 55.488 0.512 68.352 1.472a99.84 99.84 0 0 1 28.416 5.184v-8.32c0-13.824 0.576-28.16 1.728-43.008 1.152-14.848 2.88-30.528 5.184-47.04L768 553.92c-3.008 21.696-9.152 36.288-18.368 43.84-9.28 7.552-27.52 11.328-54.656 11.328h-46.912c-0.512-28.416-0.896-56.448-1.088-83.968-0.128-27.52-0.256-59.584-0.256-96.192v-49.92c0-23.424 0.576-39.808 1.6-49.28 1.088-9.408 2.752-16.384 5.12-21.056a22.4 22.4 0 0 1 12.48-9.6c5.696-1.92 13.696-2.88 24-2.88h9.344v-24l-19.712 0.768A1876.48 1876.48 0 0 1 608 275.392c-9.216 0-21.12-0.256-35.584-0.832a3257.6 3257.6 0 0 1-51.84-2.368v24z"  horiz-adv-x="1024" />

    
    <glyph glyph-name="wuxianchanpin" unicode="&#59718;" d="M415.104 524.16c0-41.536 25.792-76.864 62.72-90.688v-441.6h68.352v441.6A96.896 96.896 0 1 1 415.104 524.16zM316.672 636.8a34.176 34.176 0 1 1-57.344 37.12 299.904 299.904 0 0 1-48.256-163.456c0-60.352 17.792-118.528 51.392-168.32a34.176 34.176 0 1 1 56.704 38.272 231.296 231.296 0 0 0-39.68 130.048c0 44.992 12.8 88.704 37.184 126.272z m388.16 3.648c25.984-38.4 39.68-83.392 39.68-129.984 0-46.08-13.44-90.56-38.784-128.64a34.176 34.176 0 1 1 56.96-37.952 299.648 299.648 0 0 1 50.24 166.592 299.52 299.52 0 0 1-51.392 168.32 34.176 34.176 0 0 1-56.704-38.4z m178.624 120.512a34.176 34.176 0 1 1-56.64-38.336 377.6 377.6 0 0 0 64.768-212.16c0-75.2-21.888-147.84-63.36-210.112a34.176 34.176 0 1 1 56.96-37.888A446.016 446.016 0 0 1 960 510.464a445.76 445.76 0 0 1-76.544 250.496zM193.28 716.608a34.176 34.176 0 1 1-57.408 37.248A446.336 446.336 0 0 1 64 510.464c0-89.792 26.496-176.448 76.544-250.56a34.176 34.176 0 1 1 56.64 38.336A377.6 377.6 0 0 0 132.48 510.464c0 73.472 20.992 144.768 60.8 206.144z"  horiz-adv-x="1024" />

    
    <glyph glyph-name="yunBU" unicode="&#59719;" d="M537.152 92.8H595.2l172.992 192h102.656a64 64 0 1 0 0-57.6h-76.992l-173.056-192H537.152a64 64 0 1 0 0 57.6z m-64 256h77.696a64 64 0 1 0 0-57.6H473.152a64 64 0 1 0 0 57.6z m128 134.4a64 64 0 1 0 0 57.6h115.84l102.528-96h51.328a64 64 0 1 0 0-57.6h-74.112l-102.464 96H601.152zM288 448a32 32 0 0 0-32-32 160 160 0 0 1 0-320h64a32 32 0 1 0 0-64H256a224 224 0 0 0-30.72 445.888 352 352 0 0 0 584.064 233.664 32 32 0 0 0-42.432-47.872A288 288 0 0 1 288 448z m576-448a64 64 0 1 0 0 128 64 64 0 0 0 0-128z"  horiz-adv-x="1024" />

    
    <glyph glyph-name="zhinengjisuan" unicode="&#59720;" d="M299.52 417.792a31.808 31.808 0 0 0-31.872-31.808 159.168 159.168 0 1 1 0-318.336h63.68a31.808 31.808 0 1 0 0-63.68h-63.68a222.848 222.848 0 0 0-30.592 443.584 350.208 350.208 0 0 0 581.056 232.448 31.808 31.808 0 1 0-42.24-47.616 286.528 286.528 0 0 1-476.416-214.528z m176.384-408.576a31.808 31.808 0 0 0-44.8 45.248l486.656 481.472a31.808 31.808 0 1 0 44.8-45.248l-486.656-481.472z m269.248 217.6h190.976a31.808 31.808 0 1 0 0-63.68h-190.976a31.808 31.808 0 1 0 0 63.68z m0-127.36h190.976a31.808 31.808 0 1 0 0-63.616h-190.976a31.808 31.808 0 1 0 0 63.616z m-254.72 318.336v63.68a31.808 31.808 0 0 0 63.744 0v-63.68h63.616a31.808 31.808 0 0 0 0-63.616H554.24v-63.68a31.808 31.808 0 1 0-63.68 0v63.68h-63.68a31.808 31.808 0 0 0 0 63.616h63.68z"  horiz-adv-x="1024" />

    
    <glyph glyph-name="shutongchanpinxian" unicode="&#59721;" d="M704 288v64H320v-64h96a64 64 0 0 0 64-64v-192a64 64 0 0 0-64-64h-256a64 64 0 0 0-64 64v192a64 64 0 0 0 64 64H256v64H96a32 32 0 0 0 0 64h384v64H384a64 64 0 0 0-64 64v192a64 64 0 0 0 64 64h256a64 64 0 0 0 64-64v-192a64 64 0 0 0-64-64H544v-64h384a32 32 0 1 0 0-64H768v-64h96a64 64 0 0 0 64-64v-192a64 64 0 0 0-64-64h-256a64 64 0 0 0-64 64v192a64 64 0 0 0 64 64H704z m0-64H608v-192h256v192H704z m-384 0H160v-192h256v192H320z m160 320H640v192H384v-192h96z"  horiz-adv-x="1024" />

    
    <glyph glyph-name="jieruwang" unicode="&#59722;" d="M956.608 311.744l-197.696 439.936c-6.08 10.24-14.208 16.32-26.432 16.32H292.224c-12.16 0-20.352-6.144-26.496-16.32L68.096 311.744C64 307.648 64 303.616 64 299.52v-270.976c0-16.32 12.224-28.544 28.544-28.544h837.568a27.84 27.84 0 0 1 28.544 28.544V299.52c2.048 4.096 2.048 8.128-2.048 12.224zM314.688 419.712c-2.048 4.096-2.048 8.192-2.048 10.24 0 20.352 16.32 36.672 38.72 36.672 8.128 0 14.272-2.048 22.4-4.096 28.544-10.24 34.624 4.096 44.8 22.4l2.112 4.096c30.528 59.072 103.936 83.52 165.056 55.04 38.72-18.368 63.168-52.992 67.2-93.76 2.048-30.592 6.144-32.64 38.784-40.768 40.768-6.08 73.6-41.664 77.632-80.384H261.888c6.144 12.224 18.112 27.392 32.384 35.584 28.544 16.256 34.688 22.4 20.416 55.04zM512.32 613.76A180.096 180.096 0 0 1 371.712 522.24c-6.08 2.048-14.272 2.048-20.352 2.048-52.992 0-95.808-40.64-95.808-91.52 0-8.064 2.048-14.208 2.048-22.336-30.592-18.304-50.944-46.72-57.088-81.28h-61.12l169.152 384h403.52l171.2-384h-57.088c-4.032 62.976-50.944 117.888-116.16 132.096-12.16 95.552-99.84 162.56-197.696 152.448z m391.68-339.392v-219.456H120V274.304h784z"  horiz-adv-x="1024" />

    
    <glyph glyph-name="nengyuanchanpinxian" unicode="&#59723;" d="M566.208 12.608l28.48-30.592a32 32 0 0 0-46.912-43.584l-78.464 84.352a32 32 0 0 0-1.792 41.6l78.528 100.096a32 32 0 0 0 50.368-39.488l-37.952-48.384h345.792l-116.032 198.912a32 32 0 1 0 55.296 32.256l132.864-227.84a44.8 44.8 0 0 0-38.656-67.328H566.208z m166.528 485.12l13.76 36.48a32 32 0 0 0 59.904-22.528l-41.216-109.312a32 32 0 0 0-41.152-18.752l-110.848 41.6a32 32 0 1 0 22.4 59.904l38.912-14.592L512 749.12 413.504 580.288a32 32 0 1 0-55.232 32.256l115.008 197.248a44.8 44.8 0 0 0 77.44 0l182.016-312.064z m-488.96-81.408l-39.68-11.52a32 32 0 0 0-17.856 61.44l112.384 32.64a32 32 0 0 0 39.552-21.568l32.768-108.928a32 32 0 1 0-61.248-18.496l-10.432 34.56-179.52-307.84h201.6a32 32 0 1 0 0-64H86.272a44.8 44.8 0 0 0-38.656 67.392l196.16 336.32z"  horiz-adv-x="1024" />

    
    <glyph glyph-name="yunhexinwang" unicode="&#59724;" d="M512 37.504c-142.528-82.24-281.088-98.752-358.144-24.32C74.688 89.6 89.216 234.304 172.288 384c-83.072 149.632-97.6 294.4-18.432 370.88C230.912 829.248 369.472 812.736 512 730.496c142.528 82.24 281.088 98.752 358.144 24.32C949.312 678.4 934.784 533.696 851.712 384c83.072-149.632 97.6-294.4 18.432-370.88-77.056-74.368-215.616-57.856-358.144 24.384z m-61.504 39.488a958.08 958.08 0 0 0-135.424 116.8 966.144 966.144 0 0 0-103.552 126.72c-54.976-112.96-62.464-213.76-13.184-261.312 48-46.336 144.512-37.12 252.16 17.792zM573.44 691.008a958.08 958.08 0 0 0 135.424-116.8c39.488-40.96 74.24-83.648 103.552-126.72 54.976 112.96 62.464 213.76 13.184 261.312-48 46.336-144.512 37.12-252.16-17.792z m0-614.016c107.648-54.912 204.16-64.128 252.16-17.792 49.28 47.552 41.792 148.352-13.184 261.312-29.312-43.072-64-85.76-103.552-126.72a958.08 958.08 0 0 0-135.424-116.8zM512 112.704a874.24 874.24 0 0 1 150.912 125.568A880.832 880.832 0 0 1 777.344 384a880.832 880.832 0 0 1-114.432 145.728A874.24 874.24 0 0 1 512 655.296a874.24 874.24 0 0 1-150.912-125.568A880.832 880.832 0 0 1 246.656 384a880.832 880.832 0 0 1 114.432-145.728A874.24 874.24 0 0 1 512 112.704z m-300.48 334.72c29.312 43.136 64 85.824 103.552 126.72a958.08 958.08 0 0 0 135.424 116.864c-107.648 54.912-204.16 64.128-252.16 17.792-49.28-47.552-41.792-148.352 13.184-261.312zM512 288a96 96 0 1 0 0 192 96 96 0 0 0 0-192z"  horiz-adv-x="1024" />

    
    <glyph glyph-name="shuangjiantou-zuo" unicode="&#59729;" d="M230.997333 384l311.210667-311.125333a42.666667 42.666667 0 0 0-60.416-60.416l-341.333333 341.333333a42.666667 42.666667 0 0 0 0 60.416l341.333333 341.333333a42.666667 42.666667 0 1 0 60.416-60.416L230.997333 384zM572.330667 384l311.210666-311.125333a42.666667 42.666667 0 1 0-60.416-60.416l-341.333333 341.333333a42.666667 42.666667 0 0 0 0 60.416l341.333333 341.333333a42.666667 42.666667 0 1 0 60.416-60.416L572.330667 384z"  horiz-adv-x="1024" />

    
    <glyph glyph-name="shuangjiantou-you" unicode="&#59730;" d="M793.002667 384L481.792 72.874667a42.666667 42.666667 0 0 1 60.416-60.416l341.333333 341.333333a42.666667 42.666667 0 0 1 0 60.416l-341.333333 341.333333a42.666667 42.666667 0 1 1-60.416-60.416L793.002667 384zM451.669333 384L140.458667 72.874667a42.666667 42.666667 0 1 1 60.416-60.416l341.333333 341.333333a42.666667 42.666667 0 0 1 0 60.416l-341.333333 341.333333a42.666667 42.666667 0 1 1-60.416-60.416L451.669333 384z"  horiz-adv-x="1024" />

    
    <glyph glyph-name="qiehuan" unicode="&#59731;" d="M384 207.104V682.666667a42.666667 42.666667 0 0 0 85.333333 0v-597.333334a42.666667 42.666667 0 0 0-75.946666-26.624l-170.666667 213.589334a42.666667 42.666667 0 1 0 66.56 53.248L384 207.104zM640 85.248a42.666667 42.666667 0 0 0-85.333333 0v597.333333a42.666667 42.666667 0 0 0 75.946666 26.624l170.666667-213.589333a42.666667 42.666667 0 1 0-66.56-53.248L640 560.810667V85.333333z"  horiz-adv-x="1024" />

    
    <glyph glyph-name="shouji" unicode="&#59732;" d="M234.666667 234.666667h554.666666V768a21.333333 21.333333 0 0 1-21.333333 21.333333H256a21.333333 21.333333 0 0 1-21.333333-21.333333v-533.333333z m0-64v-170.666667a21.333333 21.333333 0 0 1 21.333333-21.333333h512a21.333333 21.333333 0 0 1 21.333333 21.333333v170.666667h-554.666666zM256 853.333333h512a85.333333 85.333333 0 0 0 85.333333-85.333333v-768a85.333333 85.333333 0 0 0-85.333333-85.333333H256a85.333333 85.333333 0 0 0-85.333333 85.333333V768a85.333333 85.333333 0 0 0 85.333333 85.333333z m170.666667-746.666666h170.666666V42.666667h-170.666666v64z"  horiz-adv-x="1024" />

    
    <glyph glyph-name="daochu" unicode="&#59733;" d="M480 686.976L376.448 564.608a32 32 0 0 0-48.896 41.344l162.56 192a32 32 0 0 0 49.216-0.384l157.44-192a32 32 0 0 0-49.536-40.576L544 690.944v-489.6a32 32 0 1 0-64 0V686.912zM788.224 512a32 32 0 1 0 0 64H896a32 32 0 0 0 32-32V0a32 32 0 0 0-32-32H128a32 32 0 0 0-32 32V544A32 32 0 0 0 128 576h99.968a32 32 0 1 0 0-64H160v-480h704V512h-75.776z"  horiz-adv-x="1024" />

    
    <glyph glyph-name="daoru" unicode="&#59734;" d="M544 287.68l103.232 125.888a32 32 0 0 0 49.536-40.576l-157.44-192a32 32 0 0 0-49.216-0.384l-162.56 192a32 32 0 0 0 48.896 41.344L480 291.648V768a32 32 0 0 0 64 0v-480.32zM788.224 512a32 32 0 1 0 0 64H896a32 32 0 0 0 32-32V0a32 32 0 0 0-32-32H128a32 32 0 0 0-32 32V544A32 32 0 0 0 128 576h99.968a32 32 0 1 0 0-64H160v-480h704V512h-75.776z"  horiz-adv-x="1024" />

    
    <glyph glyph-name="wenjianjia_fanbai" unicode="&#59735;" d="M992 608H32v192h320.128l64-64H992v-128z m0-64v-576H32v576h960z"  horiz-adv-x="1024" />

    
    <glyph glyph-name="baocun" unicode="&#59736;" d="M736 704v-256a64 64 0 0 0-64-64h-320a64 64 0 0 0-64 64V704H192v-640h640V704h-96zM192 768h640a64 64 0 0 0 64-64v-640a64 64 0 0 0-64-64H192a64 64 0 0 0-64 64V704a64 64 0 0 0 64 64z m160-64v-256h320V704h-320z m256-64a32 32 0 0 0 32-32v-64a32 32 0 0 0-64 0v64a32 32 0 0 0 32 32z"  horiz-adv-x="1024" />

    
    <glyph glyph-name="donghua" unicode="&#59737;" d="M616.384 383.616L448 492.8v-217.408l168.384 108.224z m-207.36-188.672A37.76 37.76 0 0 0 384 229.952V538.112c0 15.36 9.856 29.184 24.96 35.008a42.752 42.752 0 0 0 41.408-5.824l241.92-156.544a36.224 36.224 0 0 0-0.128-53.504l-4.288-3.392-237.504-153.088a42.176 42.176 0 0 0-41.408-5.76z m102.848-194.688a384.256 384.256 0 0 1 383.872 383.872A384.448 384.448 0 0 1 511.872 768 384.448 384.448 0 0 1 128 384.128a384.448 384.448 0 0 1 383.872-383.872z m0-64C264.96-63.744 64 137.216 64 384.128S264.96 832 511.872 832s447.872-200.96 447.872-447.872a448.256 448.256 0 0 0-447.872-447.872z"  horiz-adv-x="1024" />

    
    <glyph glyph-name="yulan1" unicode="&#59738;" d="M512.0704 736c135.424 0 259.584-63.68 369.984-168.832a921.472 921.472 0 0 0 127.872-151.68c4.608-7.04 7.808-12.16 9.6-15.04a32 32 0 0 0 0-32.896 814.08 814.08 0 0 0-36.352-52.736 920.64 920.64 0 0 0-101.056-113.984C771.7184 95.67999999999995 647.5584 32 512.0704 32s-259.648 63.68-370.048 168.832A920.64 920.64 0 0 0 14.1504 352.51199999999994a420.16 420.16 0 0 0-9.6 15.04 32 32 0 0 0 0 32.896 814.08 814.08 0 0 0 36.352 52.736c29.12 38.848 62.912 77.696 101.056 113.984C252.4224 672.3199999999999 376.5824 736 512.0704 736z m419.84-321.216a858.048 858.048 0 0 1-93.952 106.048C738.3104 615.6800000000001 628.4864 672 512.0704 672c-116.48 0-226.368-56.32-325.952-151.168A857.216 857.216 0 0 1 70.1504 384a857.216 857.216 0 0 1 116.032-136.832C285.6384 152.32000000000005 395.5904 96 512.0704 96c116.48 0 226.368 56.32 325.952 151.168A857.216 857.216 0 0 1 953.9904 384c-5.76 8.448-13.056 18.88-22.016 30.784zM512.0704 224a160 160 0 1 0 0 320 160 160 0 0 0 0-320z m0 64a96 96 0 1 1 0 192 96 96 0 0 1 0-192z"  horiz-adv-x="1024" />

    
    <glyph glyph-name="wenjianjia" unicode="&#59739;" d="M96 608h832v64H389.632l-64 64H96v-128z m0-64v-512h832v512h-832z m-64 256h320.128l64-64H992v-768H32v832z"  horiz-adv-x="1024" />

    
    <glyph glyph-name="shijian" unicode="&#59740;" d="M128 576v-576h768V576H128z m0 256h768a64 64 0 0 0 64-64v-768a64 64 0 0 0-64-64H128a64 64 0 0 0-64 64V768a64 64 0 0 0 64 64z m0-192h768V768H128v-128z m160-256h448a32 32 0 1 0 0-64h-448a32 32 0 0 0 0 64z"  horiz-adv-x="1024" />

    
    <glyph glyph-name="shezhi1" unicode="&#59741;" d="M756.48 82.176c-9.792 48.256-9.792 106.368 12.8 146.112 23.04 40.768 73.024 69.824 120.384 85.824a726.208 726.208 0 0 1 5.568 47.872c0.512 7.104 0.768 13.504 0.768 18.88 0 5.44-0.256 11.84-0.768 19.072a553.216 553.216 0 0 1-5.568 47.744c-47.936 16.448-97.28 45.056-120.32 85.632-22.528 39.808-22.528 97.024-12.928 145.856l-113.024 66.88C606.592 713.216 557.76 684.8 512 684.8c-45.44 0-93.632 28.032-131.136 61.056L267.52 679.424c9.792-48.256 9.792-106.368-12.8-146.112-23.04-40.768-73.024-69.824-120.384-85.824a726.208 726.208 0 0 1-5.568-47.872A269.632 269.632 0 0 1 128 380.8c0-5.44 0.256-11.84 0.768-19.072a553.216 553.216 0 0 1 5.568-47.744c47.936-16.448 97.28-45.056 120.32-85.632 22.528-39.808 22.528-97.024 12.928-145.856l113.024-66.88C417.408 48.384 466.24 76.8 512 76.8c45.568 0 94.016-28.224 131.136-61.056l113.28 66.368z m-114.048-133.248a53.12 53.12 0 0 0-35.776 13.632c-13.888 12.928-61.056 50.304-94.592 50.304-33.792 0-80.832-37.376-94.592-50.304a52.608 52.608 0 0 0-55.808-9.6l-2.688 1.28-135.936 80.192a55.488 55.488 0 0 0-19.648 53.888c4.16 18.624 12.288 78.848-4.48 108.352-16.704 29.568-72.064 52.48-90.112 58.24a56.512 56.512 0 0 0-36.672 42.56C71.808 299.392 64 346.304 64 380.672c0 34.432 7.808 81.216 8.128 83.264a56.512 56.512 0 0 0 36.672 42.56c18.048 5.696 73.408 28.544 90.176 58.24 16.896 29.696 8.768 89.728 4.48 108.416a55.04 55.04 0 0 0 19.584 53.888l2.56 1.792 135.872 79.808a52.608 52.608 0 0 0 55.872-9.6c13.888-12.928 61.056-50.304 94.592-50.304 33.792 0 80.832 37.376 94.592 50.304a52.608 52.608 0 0 0 55.808 9.6l2.688-1.28 135.936-80.192c15.616-11.84 23.936-34.56 19.648-53.888-4.16-18.624-12.288-78.848 4.48-108.352 16.704-29.568 72.064-52.48 90.112-58.24a56.512 56.512 0 0 0 36.672-42.56c0.32-1.92 8.128-48.832 8.128-83.2 0-34.432-7.808-81.216-8.128-83.264a56.512 56.512 0 0 0-36.672-42.56c-18.048-5.696-73.408-28.544-90.176-58.24-16.896-29.696-8.768-89.728-4.48-108.416a55.104 55.104 0 0 0-19.584-53.888l-2.56-1.792-135.872-79.808a53.568 53.568 0 0 0-20.096-4.032zM512 256a128 128 0 1 1 0 256 128 128 0 0 1 0-256z m0-64a192 192 0 1 0 0 384 192 192 0 0 0 0-384z"  horiz-adv-x="1024" />

    
    <glyph glyph-name="tianjia" unicode="&#59742;" d="M480 416V832a32 32 0 0 0 64 0v-416H960a32 32 0 1 0 0-64H544V-64a32 32 0 1 0-64 0V352H64a32 32 0 0 0 0 64h416z"  horiz-adv-x="1024" />

    
    <glyph glyph-name="bianji1" unicode="&#59743;" d="M928-32V462.848a32 32 0 1 0 64 0V-64a32 32 0 0 0-32-32H64a32 32 0 0 0-32 32V832A32 32 0 0 0 64 864h543.552a32 32 0 0 0 0-64H96v-832h832z m-516.48 190.976a38.4 38.4 0 0 0-57.728 50.688L904.576 836.352a38.4 38.4 0 0 0 57.728-50.688l-550.848-626.688z"  horiz-adv-x="1024" />

    
    <glyph glyph-name="bianjishuxing" unicode="&#59744;" d="M832 401.92a32 32 0 1 0 64 0v-369.92a32 32 0 0 0-32-32h-704a32 32 0 0 0-32 32v704a32 32 0 0 0 32 32h332.8a32 32 0 1 0 0-64H192v-640h640V401.92zM412.288 252.8l-43.392 45.312-39.36-85.76 82.752 40.448z m-178.304-95.168l96.32 209.92a32 32 0 0 0 52.224 8.832l106.24-110.912a32 32 0 0 0-9.024-50.88L277.12 115.52a32 32 0 0 0-43.136 42.112zM404.224 353.664l62.656-65.28 328.64 309.12-67.712 78.08-323.584-321.92zM336.832 376.96l370.112 368.192a32 32 0 0 0 46.72-1.728L864 616.32a32 32 0 0 0-2.24-44.288l-374.144-352a32 32 0 0 0-45.056 1.216l-106.24 110.912a32 32 0 0 0 0.512 44.8zM618.048 615.168l48.192 42.112 100.416-114.944-48.192-42.112z"  horiz-adv-x="1024" />

    
    <glyph glyph-name="quanliangqinglianghua" unicode="&#59745;" d="M479.616 178.752L76.48 488.384a32 32 0 0 0 0 50.752L492.096 859.328a32 32 0 0 0 39.04 0l416.384-320.192c16.64-12.8 16.64-37.76 0.128-50.56l-59.008-45.952a32 32 0 0 0-39.296 50.432l26.368 20.544-331.776 255.168-0.32-178.816 403.904-311.04a32 32 0 0 0 0-50.752l-416.448-319.552a32 32 0 0 0-38.976 0l-415.616 319.552a32 32 0 0 0-0.704 50.176l63.872 52.096a32 32 0 1 0 40.448-49.6l-32.576-26.56 332.096-255.296v179.776z m64-1.856v-178.048l331.904 254.72L511.616 533.76 375.04 428.288a32 32 0 0 0-39.104 50.56l143.68 111.104 0.32 179.2-331.456-255.36 364.224-279.808 124.8 96.896a32 32 0 0 0 39.232-50.56l-133.12-103.424z"  horiz-adv-x="1024" />

    
    <glyph glyph-name="Dshijian" unicode="&#59746;" d="M128 576v-576h768V576H128z m0 256h768a64 64 0 0 0 64-64v-768a64 64 0 0 0-64-64H128a64 64 0 0 0-64 64V768a64 64 0 0 0 64 64z m0-192h768V768H128v-128z m64-515.968l173.184 216.96c6.656 8.768 11.264 16.896 13.696 24.448 1.6 7.04 2.432 13.76 2.432 20.096 0 16.64-5.184 31.168-15.552 43.52-10.752 12.416-25.984 18.816-45.632 19.2a60.16 60.16 0 0 1-43.52-16.704c-11.968-11.2-19.072-26.88-21.312-47.232H192c1.6 36.992 14.016 67.52 37.12 91.712A118.592 118.592 0 0 0 315.264 512c38.144-0.384 69.12-12.608 92.8-36.544 24.128-23.808 36.48-53.952 36.8-90.56 0-29.248-8.896-55.232-26.752-78.016l-142.72-179.2H444.8V64H192v60.032z m325.952 384.32h155.2c60.032-0.384 105.088-25.408 135.104-75.008 10.752-16.64 17.536-34.112 20.416-52.416 2.24-18.24 3.328-49.856 3.328-94.72 0-47.808-1.728-81.088-5.12-99.968-1.664-9.6-4.096-18.112-7.36-25.6a236.736 236.736 0 0 0-12.48-22.912 154.496 154.496 0 0 0-54.144-51.84c-22.976-14.592-51.072-21.888-84.288-21.888H517.952V508.352z m67.2-380.672H665.6c37.76 0 65.152 12.928 82.176 38.72 7.488 9.6 12.288 21.632 14.272 36.288 1.856 14.4 2.752 41.408 2.752 81.024 0 38.656-0.896 66.24-2.752 82.944a76.48 76.48 0 0 1-17.28 40.512c-18.688 25.792-45.056 38.272-79.168 37.504H585.216v-316.992z"  horiz-adv-x="1024" />

    
    <glyph glyph-name="sousuo" unicode="&#59747;" d="M757.76 170.304a32.192 32.192 0 0 0 4.16-3.264l213.888-201.344a32 32 0 0 0-43.904-46.592L718.08 120.32a32 32 0 0 0-5.376 6.656 416 416 0 1 0 45.12 43.264zM448 96a352 352 0 1 1 0 704 352 352 0 0 1 0-704z"  horiz-adv-x="1024" />

    
    <glyph glyph-name="shanchukong" unicode="&#59748;" d="M416 32a32 32 0 1 0 0-64h-256a64 64 0 0 0-64 64v704a64 64 0 0 0 64 64h704a64 64 0 0 0 64-64v-226.496a32 32 0 1 0-64 0V736h-704v-704h256zM288 640a32 32 0 0 0 32-32v-448a32 32 0 1 0-64 0v448a32 32 0 0 0 32 32z m128-64a32 32 0 0 0 32-32v-320a32 32 0 1 0-64 0v320a32 32 0 0 0 32 32z m365.248-384l135.744-135.744a32 32 0 1 0-45.248-45.248l-135.744 135.68-135.744-135.68a32 32 0 1 0-45.248 45.248L690.688 192l-135.68 135.744a32 32 0 1 0 45.248 45.248l135.744-135.68 135.744 135.68a32 32 0 0 0 45.248-45.248L781.312 192z"  horiz-adv-x="1024" />

    
    <glyph glyph-name="taokong" unicode="&#59749;" d="M200.512 351.93600000000004l-97.088-97.536c89.344-93.44 161.664-163.904 216.64-211.136 32.576-27.904 60.736-41.984 89.344-43.264h8.32c28.608 1.28 58.176 15.168 93.312 40.96L200.512 351.93600000000004z m45.12 45.248l314.304-314.816c67.2 61.632 187.904 183.232 360.64 363.392l-313.344 314.24-361.6-362.88zM562.688 0h397.44a32 32 0 0 0 0-64H422.016c-47.168-2.752-93.568 16-143.36 58.624-59.584 51.136-137.6 127.424-234.304 229.12a44.928 44.928 0 0 0 0.704 62.72l530.56 532.48a44.544 44.544 0 0 0 63.168 0l340.16-341.248c17.152-17.28 17.472-45.12 0.64-62.72C758.656 184.32000000000005 620.672 46.847999999999956 562.624 0z"  horiz-adv-x="1024" />

    
    <glyph glyph-name="shanchubujian" unicode="&#59750;" d="M384-32a32 32 0 0 0-32-32h-192A96 96 0 0 0 64 32V192a32 32 0 0 0 32 32 96 96 0 0 1 0 192A32 32 0 0 0 64 448V608A96 96 0 0 0 160 704h163.2a160 160 0 0 0 313.6 0h163.2A96 96 0 0 0 896 608v-128.192a32 32 0 1 0-64 0V608a32 32 0 0 1-32 32h-192a32 32 0 0 0-32 32 96 96 0 0 1-192 0 32 32 0 0 0-32-32h-192a32 32 0 0 1-32-32v-131.2a160 160 0 0 0 0-313.6v-131.2a32 32 0 0 1 32-32h163.2a160 160 0 0 0 156.8 128 32 32 0 1 0 0-64A96 96 0 0 1 384-32z m429.248 224l135.744-135.744a32 32 0 1 0-45.248-45.248L768 146.688l-135.744-135.68a32 32 0 1 0-45.248 45.248L722.688 192l-135.68 135.744a32 32 0 1 0 45.248 45.248L768 237.312l135.744 135.68a32 32 0 0 0 45.248-45.248L813.312 192z"  horiz-adv-x="1024" />

    
    <glyph glyph-name="qita" unicode="&#59751;" d="M160 736v-256h256v256h-256z m260.928 64c32.64 0 59.072-26.432 59.072-59.072v-265.856c0-32.64-26.432-59.072-59.072-59.072H155.072a59.072 59.072 0 0 0-59.072 59.072V740.928c0 32.64 26.432 59.072 59.072 59.072h265.856z m187.072-64v-256h256v256h-256z m260.928 64c32.64 0 59.072-26.432 59.072-59.072v-265.856c0-32.64-26.432-59.072-59.072-59.072H603.072a59.072 59.072 0 0 0-59.072 59.072V740.928c0 32.64 26.432 59.072 59.072 59.072h265.856zM160 288v-256h256v256h-256z m260.928 64c32.64 0 59.072-26.432 59.072-59.072v-265.856c0-32.64-26.432-59.072-59.072-59.072H155.072a59.072 59.072 0 0 0-59.072 59.072V292.928c0 32.64 26.432 59.072 59.072 59.072h265.856z m315.072-64a128 128 0 1 1 0-256 128 128 0 0 1 0 256z m0 64a192 192 0 1 0 0-384 192 192 0 0 0 0 384z"  horiz-adv-x="1024" />

    
    <glyph glyph-name="jianshi1" unicode="&#59752;" d="M822.4 83.2l91.776-92.672a32 32 0 0 0-45.44-45.056l-92.16 92.992a208 208 0 1 0 45.824 44.672zM832 512h-123.456C670.72 512 640 542.72 640 580.544V766.848L638.976 768H195.2c-1.6 0-3.2-1.664-3.2-4.16v-759.68c0-2.496 1.6-4.16 3.2-4.16h318.592a32 32 0 1 0 0-64H195.2C157.888-64 128-33.28 128 4.16V763.84C128 801.28 157.888 832 195.2 832h472.96L896 569.472v-153.6a32 32 0 1 0-64 0V512z m-26.432 64L704 693.12V580.48c0-2.496 2.048-4.544 4.544-4.544h97.024z m-149.568-512a144 144 0 1 1 0 288 144 144 0 0 1 0-288z"  horiz-adv-x="1024" />

    
    <glyph glyph-name="zujianronghe" unicode="&#59753;" d="M320 512a64 64 0 0 1 64 64V768h512v-512h-192a64 64 0 0 1-64-64v-192H128V512h192z m0 64H128a64 64 0 0 1-64-64v-512a64 64 0 0 1 64-64h512a64 64 0 0 1 64 64v192h192a64 64 0 0 1 64 64V768a64 64 0 0 1-64 64H384a64 64 0 0 1-64-64v-192z"  horiz-adv-x="1024" />

    
    <glyph glyph-name="jianru" unicode="&#59754;" d="M609.152 179.84l-106.496-106.496A32 32 0 0 0 448 96v256a32 32 0 0 0 32 32h256a32 32 0 0 0 22.656-54.656l-104.192-104.192 258.432-233.408a32 32 0 0 0-42.88-47.488L609.088 179.84z m-23.936 66.624a32.384 32.384 0 0 0 0.32 0.32L658.752 320H512v-146.752l73.216 73.216zM832 480h-123.456C670.72 480 640 510.72 640 548.544V766.848L638.976 768H195.2c-1.6 0-3.2-1.664-3.2-4.16v-759.68c0-2.496 1.6-4.16 3.2-4.16h318.592a32 32 0 1 0 0-64H195.2C157.888-64 128-33.28 128 4.16V763.84C128 801.28 157.888 832 195.2 832h472.96L896 569.472v-153.6a32 32 0 1 0-64 0V480z m0 64v1.6L704 693.12V548.48c0-2.496 2.048-4.544 4.544-4.544H832z"  horiz-adv-x="1024" />

    
    <glyph glyph-name="zhongzhi" unicode="&#59755;" d="M743.04 649.6a352 352 0 1 1 115.84-205.184 32 32 0 1 0 63.04 10.88 416 416 0 1 0-155.392 257.792l-10.432 48.128a32 32 0 0 0 62.528 13.568l29.056-133.376a32 32 0 0 0-23.68-37.952l-136.512-33.408a32 32 0 0 0-15.168 62.208l70.72 17.28z"  horiz-adv-x="1024" />

    
    <glyph glyph-name="yuan" unicode="&#59756;" d="M512-64A448 448 0 1 1 512 832a448 448 0 0 1 0-896z m0-64A512 512 0 1 0 512 896a512 512 0 0 0 0-1024z"  horiz-adv-x="1024" />

    
    <glyph glyph-name="shezhifaxian" unicode="&#59757;" d="M512-32c229.44 0 416 186.624 416 416 0 229.312-186.688 416-416 416A416.576 416.576 0 0 1 96 384c0-229.312 186.688-416 416-416z m0-64C247.36-96 32 119.36 32 384S247.36 864 512 864s480-215.36 480-480c0-264.768-215.168-480-480-480z m158.72 681.6h-25.728a28.8 28.8 0 0 0 0 57.6h96a28.8 28.8 0 0 0 28.8-28.8v-95.232a28.8 28.8 0 0 0-57.6 0v26.496L602.624 437.76a28.8 28.8 0 1 0-40.448 41.024L670.72 585.6z m-300.8 0h-25.728a28.8 28.8 0 1 0 0 57.6h96a28.8 28.8 0 0 0 28.8-28.8v-95.232a28.8 28.8 0 0 0-57.6 0v26.496L301.824 437.76a28.8 28.8 0 1 0-40.448 41.024L369.92 585.6z m300.8-320h-25.728a28.8 28.8 0 0 0 0 57.6h96a28.8 28.8 0 0 0 28.8-28.8v-95.232a28.8 28.8 0 1 0-57.6 0v26.496L602.624 117.76a28.8 28.8 0 1 0-40.448 41.024L670.72 265.6z m-300.8 0h-25.728a28.8 28.8 0 1 0 0 57.6h96a28.8 28.8 0 0 0 28.8-28.8v-95.232a28.8 28.8 0 1 0-57.6 0v26.496L301.824 117.76a28.8 28.8 0 1 0-40.448 41.024L369.92 265.6z"  horiz-adv-x="1024" />

    
    <glyph glyph-name="mianxiufu" unicode="&#59758;" d="M324.224 283.968l61.312 241.92a70.4 70.4 0 0 0 18.432 32.448l145.6 145.792H768V768H128v-704.384l32.384-0.192 163.84 220.544zM768 832a64 64 0 0 0 64-64v-102.272a25.6 25.6 0 0 0-25.6-25.6H576.128L449.216 513.088a6.4 6.4 0 0 1-1.664-2.944l-61.248-241.92a64 64 0 0 0-10.688-22.4L196.288 4.48a12.8 12.8 0 0 0-10.304-5.12l-58.368 0.32a64 64 0 0 0-63.616 64V768a64 64 0 0 0 64 64h640z m128-496v4.608l-71.04-70.976a64 64 0 0 0-90.496 0l-80.832 80.832a64 64 0 0 0-0.064 90.496L724.48 512h-4.48a176.256 176.256 0 0 1-165.824-234.88 64 64 0 0 0-14.976-66.944l-143.872-143.808A39.04 39.04 0 0 1 422.848 0a38.016 38.016 0 0 1 27.328 11.328l143.936 143.936a64 64 0 0 0 66.816 14.976A176.256 176.256 0 0 1 896 336z m10.496 105.6l-16.896-16.832 16.896 16.832z m-412.544-186.112a240.256 240.256 0 0 0 321.28 300.8l14.272-6.208c1.28-0.64 2.56-1.536 3.712-2.624a12.16 12.16 0 0 0 0-17.216c-0.064 0-44.864-44.8-134.4-134.528l80.896-80.832 131.712 131.648c6.272 5.824 15.296 5.824 20.864 0.256a14.08 14.08 0 0 0 3.328-5.12c0-0.192 1.6-3.648 4.672-10.432a240.256 240.256 0 0 0-300.928-321.28l-143.808-143.808A102.016 102.016 0 0 0 422.848-64c-27.52 0-53.376 10.752-72.768 30.144a103.04 103.04 0 0 0 0 145.472l143.872 143.872z"  horiz-adv-x="1024" />

    
    <glyph glyph-name="qiuti" unicode="&#59759;" d="M641.28-45.056a449.088 449.088 0 0 1 295.424 286.016c-43.648-32.32-101.568-59.328-169.28-78.848-27.904-89.216-72.192-161.92-126.208-207.168z m-258.56 0c-53.952 45.248-98.24 117.952-126.144 207.168-67.712 19.52-125.632 46.528-169.28 78.848a449.088 449.088 0 0 1 295.488-286.08z m-52.288 189.632C372.672 36.864 441.152-32 512-32c70.848 0 139.392 68.864 181.568 176.576C637.12 133.888 576 128 512 128c-64 0-125.12 5.888-181.568 16.576z m310.784 668.48c54.016-45.248 98.304-117.952 126.208-207.168 67.712-19.52 125.632-46.528 169.28-78.848a449.088 449.088 0 0 1-295.488 286.08z m-258.432 0a449.088 449.088 0 0 1-295.488-286.016c43.648 32.32 101.568 59.328 169.28 78.848 27.904 89.216 72.192 161.92 126.208 207.168z m-52.352-189.632A978.368 978.368 0 0 0 512 640c64 0 125.12-5.888 181.568-16.576C651.328 731.136 582.848 800 512 800c-70.848 0-139.392-68.864-181.568-176.576z m385.408-408.704c12.8 51.392 20.16 108.608 20.16 169.28s-7.296 117.888-20.16 169.28C655.04 567.552 585.92 576 512 576c-73.92 0-143.104-8.448-203.84-22.72C295.36 501.888 288 444.672 288 384s7.296-117.888 20.16-169.28c60.8-14.272 129.92-22.72 203.84-22.72 73.92 0 143.104 8.448 203.84 22.72z m70.016 20.288C892.544 272.32 960 328.832 960 384c0 55.168-67.456 111.68-174.08 148.992 9.088-46.912 14.08-96.96 14.08-148.992s-4.992-102.08-14.08-148.992zM238.144 532.992C131.456 495.68 64 439.168 64 384c0-55.168 67.456-111.68 174.08-148.992A777.408 777.408 0 0 0 224 384c0 52.032 4.992 102.08 14.08 148.992zM512-128A512 512 0 1 0 512 896a512 512 0 0 0 0-1024z"  horiz-adv-x="1024" />

    
    <glyph glyph-name="yuanzhuti" unicode="&#59760;" d="M832 597.824C763.2 546.112 645.568 512 512 512s-251.2 34.112-320 85.824v-427.648C260.8 221.888 378.432 256 512 256s251.2-34.112 320-85.824V597.76zM896 704v-640c0-106.048-171.904-192-384-192s-384 85.952-384 192V704c0 106.048 171.904 192 384 192s384-85.952 384-192zM512 576c181.248 0 320 69.376 320 128 0 58.624-138.752 128-320 128S192 762.624 192 704c0-58.624 138.752-128 320-128z m0-640c181.248 0 320 69.376 320 128 0 58.624-138.752 128-320 128s-320-69.376-320-128c0-58.624 138.752-128 320-128z"  horiz-adv-x="1024" />

    
    <glyph glyph-name="yuanhuanti" unicode="&#59761;" d="M269.855047-67.09529699999996A385.262182 385.262182 0 0 0 60.968708 141.72704499999998a511.976321 511.976321 0 1 0 208.822342-208.822342z m27.326736 57.981319a319.985201 319.985201 0 1 1-178.231757 178.231756 450.091183 450.091183 0 0 1 178.231757-178.231756zM69.480314 453.392631a383.982241 383.982241 0 1 0 512.040319-511.976322A448.107275 448.107275 0 0 1 512.147841 831.99912a448.107275 448.107275 0 0 1-442.667527-378.606489z"  horiz-adv-x="1024" />

    
    <glyph glyph-name="fabu1" unicode="&#59762;" d="M474.688 188.736V-32a32 32 0 1 0-64 0v259.392a32 32 0 0 0 8.512 21.696l419.584 455.04L147.84 361.28l174.4-57.984a32 32 0 0 0-20.224-60.736L53.888 324.992a32 32 0 0 0-4.096 59.072l896 444.608a32 32 0 0 0 45.696-34.432l-127.168-695.68a32 32 0 0 0-41.536-24.576l-348.096 114.752z m431.36 493.888L503.808 246.4l304.064-100.224 98.048 536.32z"  horiz-adv-x="1024" />

    
    <glyph glyph-name="Dshijian1" unicode="&#59763;" d="M128 576v-576h768V576H128z m0 256h768a64 64 0 0 0 64-64v-768a64 64 0 0 0-64-64H128a64 64 0 0 0-64 64V768a64 64 0 0 0 64 64z m0-192h768V768H128v-128z m239.36-196.032c-13.184 13.056-30.144 19.584-50.816 19.584-21.888 0-38.592-7.936-50.24-23.808-11.584-15.872-18.048-39.488-19.2-71.04h-44.8c0 45.632 10.048 80.96 30.336 105.92C252.8 499.584 281.536 512 318.592 512c35.008 0 63.232-10.368 84.672-31.04 21.44-20.736 32.192-48 32.192-81.92 0-33.728-10.752-60.992-32.32-81.792-10.496-10.432-11.904-15.296-25.92-19.2 15.36 5.888 29.376-1.92 36.16-8.384 23.04-21.44 34.624-50.304 34.624-86.656 0-40.768-11.968-74.112-35.84-100.096-23.936-25.92-54.72-38.912-92.288-38.912-41.344 0-72.512 11.776-93.504 35.264-21.056 23.552-32.512 59.52-34.368 108.032h48.192c2.688-33.92 10.304-58.24 22.848-72.896 12.48-14.592 31.872-21.952 58.24-21.952 22.784 0 41.408 7.68 55.936 23.168 14.592 15.488 21.824 35.328 21.824 59.52 0 25.472-7.04 45.696-20.992 60.608a68.48 68.48 0 0 1-46.08 21.76 360.64 360.64 0 0 1-24.768 0.96 62.848 62.848 0 0 1-15.488-1.216v47.552c3.712-0.96 9.536-1.472 17.408-1.472 7.872 0 15.616 0.64 23.296 1.792a62.208 62.208 0 0 1 36.16 17.28c12.48 12.16 18.688 29.12 18.688 51.008 0 20.608-6.656 37.504-19.84 50.56zM512 512h158.08c61.248-0.384 107.136-25.6 137.728-75.584 10.944-16.832 17.92-34.432 20.8-52.864 2.24-18.432 3.392-50.304 3.392-95.552 0-48.128-1.728-81.728-5.248-100.8-1.664-9.6-4.16-18.24-7.488-25.792a237.888 237.888 0 0 0-12.672-23.04c-13.248-21.12-31.616-38.528-55.232-52.224-23.36-14.72-51.968-22.144-85.888-22.144H512V512z m68.48-383.808h81.92c38.4 0 66.368 13.056 83.712 39.04 7.68 9.6 12.48 21.824 14.592 36.544 1.856 14.592 2.752 41.792 2.752 81.792 0 38.912-0.896 66.752-2.752 83.52a76.672 76.672 0 0 1-17.728 40.896c-19.008 26.048-45.888 38.592-80.64 37.76H580.608v-319.552z"  horiz-adv-x="1024" />

    
    <glyph glyph-name="zu" unicode="&#59764;" d="M64-63.872l639.872-0.128L704 575.872 64.128 576 64-63.872zM0 575.872C0 611.2 29.184 640 64.128 640h639.744C739.2 640 768 610.816 768 575.872v-639.744C768-99.2 738.816-128 703.872-128H64.128A64.448 64.448 0 0 0 0-63.872V575.872zM832 192h127.872L960 831.872 320.128 832v-128H256V831.872C256 867.2 285.184 896 320.128 896h639.744C995.2 896 1024 866.816 1024 831.872v-639.744C1024 156.8 994.816 128 959.872 128H832v64z"  horiz-adv-x="1024" />

    
    <glyph glyph-name="ershimianti" unicode="&#59765;" d="M896 263.616L631.68 0H832v32a32 32 0 0 0 32 32h32V263.616z m0 90.368V498.816L396.416 0h144.64L896 353.984zM882.688 576H864a32 32 0 0 0-32 32v25.664l-4.8-1.088L192 18.048V0h113.92l576.768 576zM832 699.52V736a32 32 0 0 0 32 32h128a32 32 0 0 0 32-32v-128a32 32 0 0 0-32-32H960v-512h32a32 32 0 0 0 32-32v-128a32 32 0 0 0-32-32h-128a32 32 0 0 0-32 32V-64H192v-32a32 32 0 0 0-32-32h-128a32 32 0 0 0-32 32v128a32 32 0 0 0 32 32H64V704H32a32 32 0 0 0-32 32v128A32 32 0 0 0 32 896h128a32 32 0 0 0 32-32v-41.344l265.6-211.904L832 699.456zM192 740.736V736a32 32 0 0 0-32-32H128v-197.44l158.528 158.848L192 740.8zM128 416v-145.28l288.896 290.624-80 63.872L128 416z m0-236.032V64h19.456l557.824 539.648-204.16-48.384L128 179.968zM64 0v-64h64v64H64z m832 0v-64h64v64h-64z m0 704v-64h64V704h-64zM64 832v-64h64V832H64z"  horiz-adv-x="1024" />

    
    <glyph glyph-name="pingmian" unicode="&#59766;" d="M448-64v259.84h64V-64h448V384h-259.84V448H960V832H512v-448H64v-448h384z m576 448.128v-448.256c0-35.264-28.48-63.872-64-63.872H64c-35.328 0-64 28.544-64 63.872V384.128C0 419.392 28.992 448 63.808 448H448V832.192C448 867.008 476.608 896 511.872 896h448.256c35.328 0 63.872-28.672 63.872-64v-447.872z"  horiz-adv-x="1024" />

    
    <glyph glyph-name="zhengfangti" unicode="&#59767;" d="M96-32h640v576h-640v-576z m-64-32V576a32 32 0 0 0 32 32h704a32 32 0 0 0 32-32v-640a32 32 0 0 0-32-32H64a32 32 0 0 0-32 32zM313.088 800L87.552 554.368a32 32 0 0 0-47.104 43.264l235.008 256A32 32 0 0 0 299.072 864h660.8a32 32 0 0 0 25.6-51.2l-191.872-256a32 32 0 0 0-51.2 38.4l153.472 204.8H313.088zM928 832a32 32 0 0 0 64 0l-0.128-672a32 32 0 0 0-7.68-20.8l-191.872-224a32 32 0 0 0-48.64 41.6l184.192 215.04L928 832zM352.128 192h608v-64h-640a32 32 0 0 0-32 32L288 804.8h64L352.128 192zM85.12-85.76a32 32 0 1 0-41.92 48.448l255.872 221.504a32 32 0 1 0 41.856-48.384L85.12-85.696z"  horiz-adv-x="1024" />

    
    <glyph glyph-name="jiubei" unicode="&#59768;" d="M523.136 192h-17.088C305.792 192 128 374.08 128 577.408V864c0 19.712 18.56 32 38.72 32h694.912c20.16 0 34.368-12.288 34.368-32v-286.592C896 374.08 722.944 192 523.136 192zM192 832v-254.592C192 411.2 342.784 256 505.856 256h17.6C686.144 256 832 411.2 832 577.408V832H192z m544.96-960h-449.92A31.552 31.552 0 0 0 256-96c0 17.664 13.888 32 31.04 32h449.92c17.152 0 31.04-14.336 31.04-32s-13.888-32-31.04-32zM512-96a31.808 31.808 0 0 0-31.488 32.064V224c0 17.664 14.08 32.064 31.488 32.064s31.488-14.4 31.488-32.064V-64c0-17.664-14.08-32.064-31.488-32.064z"  horiz-adv-x="1024" />

    
    <glyph glyph-name="huanmianniujieti" unicode="&#59769;" d="M196.639729 872.659125A51.158082 51.158082 0 0 0 239.54857 896H972.260205a51.158082 51.158082 0 0 0 51.158082-51.158082v-601.107468a51.158082 51.158082 0 0 0-51.158082-51.158082H607.758868c-41.949628 86.96874-95.857457 150.916343-161.65954 191.842809-48.600178 30.183269-107.431973 49.62334-176.62328 58.320213l-32.80512 1.918428c-39.391723-171.059838-20.27139-276.125749 39.839357-335.149386 44.507532-43.804108 113.443048-53.332301 152.387137-32.421435 12.597678 6.778446 16.754272 19.631914 13.62084 44.379636-1.278952 10.231616-3.836856 21.230604-7.801608 35.74671 0.191843-0.639476-6.202917 21.742185-7.673712 27.369574-3.19738 12.917416-4.412385 21.422447-2.557904 30.95064 4.476332 24.236142 27.113784 34.979339 48.919916 28.264841 9.528193-2.877642 19.695862-8.952664 33.380649-19.056386 108.902768-80.382137 125.529145-233.664541 18.992438-306.564808C363.031391-193.027678 43.101534-100.559444 6.6514 188.611616-21.165807 409.806375 41.502844 636.756418 193.378401 868.502531a32.229592 32.229592 0 0 0 3.19738 4.092646A51.158082 51.158082 0 0 0 239.54857 896H972.260205a51.158082 51.158082 0 0 0 51.158082-51.158082v-601.107468a51.158082 51.158082 0 0 0-51.158082-51.158082H607.758868c-41.949628 86.96874-95.857457 150.916343-161.65954 191.842809-48.600178 30.183269-107.431973 49.62334-176.62328 58.320213l1.790533 3.197381-18.864543 10.359511a32.101697 32.101697 0 0 1-20.207442 52.437035c-5.115808 0.639476-13.684787 1.918428-19.184281 2.366061v0.25579c105.513545-4.028699 194.784399-27.881155 266.789399-72.580529 67.017088-41.565942 122.587555-102.69985 166.839296-182.250668H959.470684V832.052397H246.007278C102.572805 612.712119 44.380486 401.237396 70.15137 196.541119c16.498482-131.028638 87.032688-203.225482 193.569394-236.542183 83.963203-26.282465 184.041201-17.649538 225.926881 10.998988 54.035724 36.897767 56.913367 110.18172 15.091635 166.583505l1.215004-7.99345c6.13897-48.216493-6.39476-87.160583-46.809645-108.83882-63.49997-34.084072-162.874545-20.399285-227.461624 43.100684-81.533194 80.190294-103.211431 216.07895-51.094135 420.775227 7.865555 21.87008 24.619827 26.66615 28.776422 26.730098l3.645013-0.25579v0.25579c105.513545-4.028699 194.784399-27.881155 266.789399-72.580529 67.017088-41.565942 122.587555-102.69985 166.839296-182.250668H959.470684V832.052397H246.007278l0.959214 1.470795A31.973801 31.973801 0 0 1 196.575781 872.659125zM959.470684 844.841918c0-7.034236 5.755284-12.789521 12.789521-12.789521H959.470684V844.841918z m0 0c0-7.034236 5.755284-12.789521 12.789521-12.789521H959.470684V844.841918z"  horiz-adv-x="1024" />

    
    <glyph glyph-name="fuxuankuang" unicode="&#59770;" d="M128 767.552v-767.104c0-0.256 0.192-0.448 0.448-0.448h767.104c0.256 0 0.448 0.192 0.448 0.448V767.552c0 0.256-0.192 0.448-0.448 0.448H128.448C128.192 768 128 767.808 128 767.552z m-64 0C64 803.2 92.8 832 128.448 832h767.104C931.2 832 960 803.2 960 767.552v-767.104C960-35.2 931.2-64 895.552-64H128.448C92.8-64 64-35.2 64 0.448V767.552z m378.048-526.08l301.312 295.68a35.2 35.2 0 0 0 49.28-50.304l-326.144-320a35.2 35.2 0 0 0-49.472 0.192L231.168 352a35.2 35.2 0 1 0 49.664 49.92l161.216-160.448z"  horiz-adv-x="1024" />

    
    <glyph glyph-name="dimian" unicode="&#59771;" d="M622.05376 288l-33.664 191.36H435.81376L402.14976 288h219.904z m64.32 0h213.12l-49.28 191.36h-197.504l33.664-191.36zM548.90176 704h-73.6l-28.16-160h129.92L548.83776 704zM613.22176 704l28.16-160h192.192L792.42176 704h-179.2z m48.192-640l-27.968 159.36H390.75776L362.78976 64h298.624z m64.32 0h231.36l-40.96 159.36H697.70176l28.032-159.36z m-387.84 224l33.6 191.36H173.98976l-49.28-191.36h213.12zM410.98176 704h-179.2l-41.152-160H382.82176L410.98176 704zM298.46976 64l28.032 159.36H108.13376L67.17376 64h231.296zM221.98976 768h580.224c23.04 0 43.2-15.744 49.024-38.336l171.2-665.6A51.2 51.2 0 0 0 973.41376 0H50.72576a50.944 50.944 0 0 0-49.024 64.064l171.264 665.6A50.752 50.752 0 0 0 221.98976 768z"  horiz-adv-x="1024" />

    
    <glyph glyph-name="shipin" unicode="&#59772;" d="M832 567.808l141.76 98.496a32 32 0 0 0 50.24-26.432l-1.6-512a32 32 0 0 0-51.712-25.088L832 211.392V64a64 64 0 0 0-64-64H64a64 64 0 0 0-64 64V704a64 64 0 0 0 64 64h704a64 64 0 0 0 64-64v-136.192z m0-77.952v-197.12l126.592-99.2 1.216 385.152L832 489.856zM64 704v-640h704V704H64z m256-217.728v-204.544L483.648 384 320 486.272z m240.96-129.408l-256-160A32 32 0 0 0 256 224v320a32 32 0 0 0 48.96 27.136l256-160a32 32 0 0 0 0-54.272z"  horiz-adv-x="1024" />

    
    <glyph glyph-name="tupian" unicode="&#59773;" d="M960 142.592V736H64v-475.008l179.968 148.096a32 32 0 0 0 41.472-0.64l279.04-245.568 163.392 179.072a32 32 0 0 0 47.104 0.192L960 142.592z m0-94.144l-208.32 224.64-139.136-152.512 100.736-88.576H960v16.448zM64 178.048V32h552.32L263.68 342.4 64 177.984zM64 800h896a64 64 0 0 0 64-64v-704a64 64 0 0 0-64-64H64a64 64 0 0 0-64 64v704a64 64 0 0 0 64 64z m640-320a64 64 0 1 1 0 128 64 64 0 0 1 0-128z m0-64a128 128 0 1 0 0 256 128 128 0 0 0 0-256z"  horiz-adv-x="1024" />

    
    <glyph glyph-name="wenbenmianban" unicode="&#59774;" d="M64 768v-768h896V768H64z m0 64h896a64 64 0 0 0 64-64v-768a64 64 0 0 0-64-64H64a64 64 0 0 0-64 64V768a64 64 0 0 0 64 64z m317.696-670.272h13.888c16.704 0 28.992 1.856 36.736 5.44a34.432 34.432 0 0 1 17.28 19.328c2.432 7.04 4.224 24 5.184 51.008 1.024 27.008 1.536 76.992 1.536 150.016V601.984H391.808c-39.232 0-66.112-5.504-80.64-16.512-14.464-10.944-24.512-32.128-29.952-63.36l-35.264 7.488c5.76 24.768 10.176 48.448 13.312 71.04 3.136 22.656 5.056 44.992 5.76 67.008 9.536-3.264 22.912-5.568 40.192-6.976 17.28-1.344 46.336-2.048 87.36-2.048h224.96c46.08 0 78.08 0.64 96.192 2.048 18.176 1.408 31.488 3.84 39.936 7.36v-11.648c0-19.52 0.832-39.68 2.432-60.544 1.664-20.928 4.096-42.944 7.36-66.24l-33.792-5.248c-4.224 30.528-12.8 51.072-25.856 61.696-12.992 10.624-38.592 16-76.864 16H560.96c-0.768-40.064-1.28-79.424-1.536-118.144-0.256-38.784-0.384-83.904-0.384-135.424V278.4c0-33.024 0.768-56.128 2.304-69.376 1.472-13.248 3.84-23.168 7.04-29.632 3.84-6.272 9.664-10.752 17.664-13.504 8-2.752 19.264-4.16 33.792-4.16h13.12V128l-27.776 1.152a2640.128 2640.128 0 0 1-100.48 3.328c-12.992 0-29.696-0.384-50.048-1.088-20.416-0.768-44.736-1.92-72.96-3.392v33.728z"  horiz-adv-x="1024" />

    
    <glyph glyph-name="yinpin" unicode="&#59775;" d="M864 352H960a64 64 0 0 0 64-64v-256a64 64 0 0 0-64-64h-96a64 64 0 0 0-64 64V448a288 288 0 1 1-576 0v-416a64 64 0 0 0-64-64H64a64 64 0 0 0-64 64v256a64 64 0 0 0 64 64h96V448a352 352 0 0 0 704 0v-96z m0-64v-256H960v256h-96zM160 128V288H64v-256h96V128z m297.536 134.08a32 32 0 0 0-30.08-21.056H320.384a32 32 0 1 0 0 64h84.608L441.6 405.824a32 32 0 0 0 59.648 1.28l63.168-152.64 14.4 31.744a32 32 0 0 0 29.12 18.816h93.632a32 32 0 1 0 0-64h-72.96l-36.416-80.192a32 32 0 0 0-58.688 0.96l-59.84 144.64-16.128-44.352z"  horiz-adv-x="1024" />

    
    <glyph glyph-name="qiehuananniu" unicode="&#59776;" d="M512 128h192a256 256 0 1 1 0 512H512c77.76-58.368 128-151.296 128-256a319.488 319.488 0 0 0-128-256zM320 704h384a320 320 0 0 0 0-640H320A320 320 0 0 0 320 704z m0-64a256 256 0 1 1 0-512 256 256 0 0 1 0 512z"  horiz-adv-x="1024" />

    
    <glyph glyph-name="xialakuang" unicode="&#59777;" d="M992 832H32a32 32 0 0 1-32-32v-448a32 32 0 0 1 32-32h960a32 32 0 0 1 32 32v448a32 32 0 0 1-32 32zM960 384H64V768h896v-384z m-32-128c-17.664 0-32-16.32-32-36.48v-219.648H128V219.52c0 20.16-14.336 36.48-32 36.48s-32-16.32-32-36.48v-247.04c0-20.16 14.336-36.48 32-36.48h832c17.664 0 32 16.32 32 36.48v247.04c0 20.16-14.336 36.48-32 36.48z m-192.128 224a33.28 33.28 0 0 1 23.616 9.728l127.104 127.36a31.872 31.872 0 0 1 8.192 31.36 32.64 32.64 0 0 1-23.616 22.528 33.472 33.472 0 0 1-31.808-8.704l-103.488-103.68-103.552 103.68a33.536 33.536 0 0 1-46.4 0.192 31.872 31.872 0 0 1-0.832-45.44l127.232-127.296a33.28 33.28 0 0 1 23.552-9.728z"  horiz-adv-x="1024" />

    
    <glyph glyph-name="qinglianghuamoban" unicode="&#59778;" d="M128 480v-448h768v448H128z m-32 64h832a32 32 0 0 0 32-32v-512a32 32 0 0 0-32-32h-832A32 32 0 0 0 64 0V512a32 32 0 0 0 32 32z m128 128h576a32 32 0 1 0 0-64h-576a32 32 0 0 0 0 64z m128 128h320a32 32 0 1 0 0-64h-320a32 32 0 0 0 0 64z"  horiz-adv-x="1024" />

    
    <glyph glyph-name="anniu" unicode="&#59779;" d="M219.712 403.2h9.92c5.76 0 14.912 0.256 27.648 0.768h1.856a48.832 48.832 0 0 1 13.888 16.448c3.2 6.4 4.864 12.992 4.864 20.032 0 11.84-3.328 21.12-10.048 27.648-6.72 6.592-16.192 9.92-28.416 9.92-1.664 0-5.312-0.384-11.008-1.088a446.912 446.912 0 0 0-8.384-1.088v-42.368c0-3.52 0-8.704-0.192-15.488l-0.128-14.72z m0.32-109.312a61.44 61.44 0 0 1 12.16-3.328c4.224-0.704 8.704-1.088 13.568-1.088 12.416 0 22.4 3.776 29.824 11.328a40.832 40.832 0 0 1 11.2 29.952c0 13.44-4.16 23.936-12.352 31.552-8.256 7.552-19.712 11.392-34.368 11.392a472.576 472.576 0 0 1-20.352-0.704c0-13.184 0.128-27.072 0.32-41.664v-37.44zM128 279.296a42.24 42.24 0 0 1 7.616-0.32c8.768 0 14.72 2.944 17.664 8.896 3.008 5.952 4.48 21.76 4.48 47.552v26.688l0.32 36.16V455.68c0 12.672-1.664 21.376-4.992 26.112-3.392 4.672-9.472 7.04-18.24 7.04a37.76 37.76 0 0 1-2.816-0.192 37.952 37.952 0 0 0-3.072-0.192V510.72c12.16-0.64 22.592-1.088 31.232-1.344 8.64-0.32 16.256-0.448 22.72-0.448 10.176 0 23.552 0.512 40.192 1.472 16.64 1.024 28.288 1.536 34.816 1.536 25.344 0 45.312-5.376 59.968-16.128a50.688 50.688 0 0 0 21.952-43.008c0-13.632-4.288-25.6-12.864-35.904-8.64-10.368-21.248-18.56-37.888-24.576 21.312-3.008 37.312-9.792 48-20.416 10.752-10.624 16.064-25.088 16.064-43.52 0-21.824-9.472-39.296-28.544-52.48-19.008-13.056-44.864-19.584-77.568-19.584-5.376 0-16 0.512-31.936 1.6a608.32 608.32 0 0 1-39.488 1.6A13196.864 13196.864 0 0 1 128 257.472v21.824z m299.84 0c1.024 0 2.368 0 4.096-0.128a60.352 60.352 0 0 1 3.648-0.192c7.232 0 12.416 1.088 15.616 3.392 3.136 2.24 5.44 6.592 6.848 12.992 0.768 3.456 1.28 11.328 1.472 23.68 0.256 12.352 0.448 33.216 0.448 62.656V472.448a516.608 516.608 0 0 1-21.312 0.384c-18.304 0-30.464-2.816-36.48-8.32-5.952-5.632-10.24-16.512-12.672-32.832l-21.76 5.568c2.368 11.136 4.48 22.912 6.144 35.2 1.728 12.352 3.072 25.344 4.096 39.04a1186.432 1186.432 0 0 1 97.92-3.904c36.352 0 65.088 0.32 86.272 0.96 21.248 0.64 36.48 1.6 45.632 2.944a577.472 577.472 0 0 1 4.992-74.944l-20.672-4.096c-2.688 16.256-6.656 27.072-12.032 32.576-5.312 5.44-15.872 8.192-31.68 8.192a773.952 773.952 0 0 1-24.192-1.088 69353.408 69353.408 0 0 1-0.64-96.832v-21.888c0-21.056 0.192-35.776 0.64-44.16 0.384-8.448 1.088-14.272 2.112-17.472a17.152 17.152 0 0 1 7.36-9.856c3.392-1.92 8.32-2.944 14.72-2.944a46.72 46.72 0 0 1 3.328 0.192 48.256 48.256 0 0 0 3.648 0.128l-0.192-21.888c-13.44 1.088-25.728 1.92-36.864 2.432a489.344 489.344 0 0 1-54.08 0c-10.112-0.576-22.208-1.344-36.288-2.432l-0.128 21.888z m191.168 232.192c14.144-0.96 24.96-1.6 32.32-1.92a399.552 399.552 0 0 1 41.152 0c8.32 0.448 17.28 1.088 26.88 1.92a60.032 60.032 0 0 1 6.016-14.912c2.816-5.12 8.256-13.184 16.192-24.128l90.624-122.432a8093.952 8093.952 0 0 1 0.512 79.296l0.128 15.232c0 19.072-1.6 31.488-4.864 37.12-3.264 5.632-9.536 8.448-18.688 8.448a64.832 64.832 0 0 1-6.72-0.384v21.76a417.664 417.664 0 0 1 70.4-1.92c7.616 0.448 15.296 1.088 23.04 1.92v-21.76c-9.28 0-15.616-0.832-18.944-2.56-3.328-1.728-5.696-4.928-7.104-9.536-1.088-3.84-1.856-11.072-2.368-21.888-0.512-10.816-0.832-32.64-1.088-65.664l-0.32-23.68a10449.92 10449.92 0 0 1-0.64-91.52 306.176 306.176 0 0 1 1.28-18.88h-51.84a78.08 78.08 0 0 1-5.568 10.624 233.856 233.856 0 0 1-11.776 16.64L686.336 432a3120.96 3120.96 0 0 1-0.64-67.456v-33.856c0-22.528 1.664-36.864 4.864-42.944 3.2-6.144 9.408-9.216 18.56-9.216a66.944 66.944 0 0 1 8.32 0.704v-21.888a1367.04 1367.04 0 0 1-29.632 1.6 525.632 525.632 0 0 1-21.12 0.576c-5.12 0-11.712-0.192-19.84-0.576-8.128-0.32-17.792-0.896-28.928-1.6v21.888c0.896 0 2.176 0 3.84-0.128a54.72 54.72 0 0 1 3.136-0.192 29.44 29.44 0 0 1 14.528 2.816c3.2 1.92 5.76 5.248 7.488 9.984 2.176 6.272 3.648 28.8 4.352 67.456l0.448 17.088 0.64 21.952a6278.848 6278.848 0 0 1 0.32 57.856c0 13.44-1.792 22.4-5.376 27.008-3.52 4.672-10.368 6.976-20.352 6.976a93.696 93.696 0 0 1-7.936-0.384v21.76zM64 704v-640h896V704H64z m0 64h896a64 64 0 0 0 64-64v-640a64 64 0 0 0-64-64H64a64 64 0 0 0-64 64V704a64 64 0 0 0 64 64z"  horiz-adv-x="1024" />

    
    <glyph glyph-name="redianzhanshi" unicode="&#59780;" d="M160 640a96 96 0 1 1 0 192 96 96 0 0 1 0-192z m0-64a160 160 0 1 0 0 320 160 160 0 0 0 0-320zM832-64a128 128 0 1 1 0 256 128 128 0 0 1 0-256z m0-64a192 192 0 1 0 0 384 192 192 0 0 0 0-384z m-128 512a128 128 0 1 0 0 256 128 128 0 0 0 0-256z m-544-448a96 96 0 1 0 0 192 96 96 0 0 0 0-192z m768 768a96 96 0 1 0 0 192 96 96 0 0 0 0-192zM192 384a64 64 0 1 0 0 128 64 64 0 0 0 0-128z m288-256a96 96 0 1 0 0 192 96 96 0 0 0 0-192z"  horiz-adv-x="1024" />

    
    <glyph glyph-name="xuliezhentupian" unicode="&#59781;" d="M447.879694-127.879694a45.690517 45.690517 0 0 0-30.908291 9.150901l-334.871815 254.241491A45.690517 45.690517 0 0 0 64.053754 171.924329v550.33396c0 18.813742 11.326641 35.0038 27.516698 41.978963L197.605727 885.118746A31.99616 31.99616 0 0 0 221.66684 895.99744H927.950086a31.484222 31.484222 0 0 0 30.716314-23.101228 32.188137 32.188137 0 0 0 1.279846-11.070671v-691.181058a45.690517 45.690517 0 0 0-24.061112-40.315163l-466.440027-250.977882a45.626525 45.626525 0 0 0-6.463225-3.519578 31.868176 31.868176 0 0 0-15.102188-3.711554z m371.155462 267.99984L895.953926 181.523177V782.155101l-63.992321-69.303683v-540.863097a45.690517 45.690517 0 0 0-12.926449-31.868175zM180.007839 768.012798h606.263248c3.007639 0 5.887294-0.319962 8.766948-0.8319L854.870855 832.005119H236.129105l-56.121266-63.992321zM767.969284 181.203216V704.020478H128.046074v-523.009239l316.697997-240.41915L767.969284 181.203216zM384.015358 518.314762v-204.519457L547.643723 416.055033 384.015358 518.314762z m240.931088-129.392473l-255.969283-159.980802A31.99616 31.99616 0 0 0 320.023037 256.074231V576.035836a31.99616 31.99616 0 0 0 48.954126 27.132744l255.969283-159.980803a31.99616 31.99616 0 0 0 0-54.265488z"  horiz-adv-x="1024" />

    
    <glyph glyph-name="wenbenkuang" unicode="&#59782;" d="M960 64h32a32 32 0 0 0 32-32v-128a32 32 0 0 0-32-32h-128a32 32 0 0 0-32 32v128a32 32 0 0 0 32 32h32v58.496h64V64zM832 832V864a32 32 0 0 0 32 32h128a32 32 0 0 0 32-32v-128a32 32 0 0 0-32-32H960v-5.248l-64-0.512V704h-32a32 32 0 0 0-32 32V768h-32V832h32zM192 832h32v-64H192v-32a32 32 0 0 0-32-32h-128a32 32 0 0 0-32 32v128A32 32 0 0 0 32 896h128a32 32 0 0 0 32-32V832z m96-64V832h64v-64h-64z m128 0V832h64v-64h-64z m128 0V832h64v-64h-64z m128 0V832h64v-64h-64zM896 634.496h64v-64h-64v64z m0-128h64v-64h-64v64z m0-128h64v-64h-64v64z m0-128h64v-64h-64v64zM788.992 0v-64h-64v64h64z m-128 0v-64h-64v64h64z m-128 0v-64h-64v64h64z m-128 0v-64h-64v64h64z m-128 0v-64h-64v64h64zM128 80.448H64v64h64v-64z m0 128H64v64h64v-64z m0 128H64v64h64v-64z m0 128H64v64h64v-64z m0 128H64v64h64v-64zM64 832v-64h64V832H64z m832 0v-64h64V832h-64z m0-832v-64h64v64h-64zM64 0v-64h64v64H64z m-32 64h128a32 32 0 0 0 32-32v-128a32 32 0 0 0-32-32h-128a32 32 0 0 0-32 32v128a32 32 0 0 0 32 32z m470.656 511.744l-81.792-207.36a2080.576 2080.576 0 0 1 72.768-0.768c20.48 0 36.48 0.064 48 0.192 11.52 0.128 22.272 0.32 32.256 0.576l-71.232 207.36zM481.92 665.728h91.52a12503.68 12503.68 0 0 1 102.912-290.816c32.64-88.32 55.488-147.2 68.48-176.384 5.504-13.248 12.416-22.72 20.8-28.352 8.32-5.632 19.584-8.448 33.536-8.448h8.32V128c-31.808 1.472-56.192 2.56-73.152 3.008a1496.384 1496.384 0 0 1-42.752 0.768c-11.008 0-25.28-0.256-42.752-0.768-17.536-0.512-42.88-1.536-76.16-3.008v33.728h6.784c19.712 0 33.088 2.24 40.128 6.784 6.976 4.48 10.496 12.48 10.496 24 0 3.52-0.448 7.616-1.28 12.352a169.088 169.088 0 0 1-5.504 19.84L592.64 315.52A41597.696 41597.696 0 0 1 492.8 316.992c-10.752 0-32.384-0.384-64.832-1.088a1374.08 1374.08 0 0 0-27.392-0.384l-1.536-3.776c-24.448-59.776-36.736-97.472-36.736-113.28 0-12.992 3.712-22.336 11.072-28.096 7.36-5.76 19.584-8.64 36.544-8.64h6.784V128c-28.544 1.472-50.624 2.56-66.368 3.008-15.744 0.512-28.8 0.768-39.04 0.768-8.512 0-19.648-0.256-33.536-0.768-13.888-0.512-34.048-1.536-60.544-3.008v33.728c17.92 0 32.32 3.2 43.072 9.408 10.752 6.208 19.84 16.768 27.392 31.488 10.752 19.52 35.008 73.984 72.768 163.52 37.76 89.472 78.208 189.376 121.472 299.584z"  horiz-adv-x="1024" />

    
    <glyph glyph-name="Dwenzi" unicode="&#59783;" d="M700.992 638.72l110.272 35.968-474.944 152-107.52-34.816-96.64 31.36a22.848 22.848 0 0 1-10.112 1.344L328 891.264a20.864 20.864 0 0 0 15.808 0l561.856-179.584a24.576 24.576 0 0 0 17.728-23.552c0-10.88-0.64-103.744-0.64-121.28v-77.568a23.936 23.936 0 0 0-16.512-22.528l-193.088-62.848-7.36-443.072a24.96 24.96 0 0 0-16.832-22.848l-196.864-61.44a19.968 19.968 0 0 0-5.12-1.664l-0.32-0.064a2.688 2.688 0 0 0-1.28-0.064l-0.768-0.064c-5.12-0.128-5.12-0.128-7.68 0.512l-183.168 59.008a25.728 25.728 0 0 0-18.048 24.32l10.432 565.568-172.8 55.68a25.728 25.728 0 0 0-17.28 25.664l3.456 194.112a26.432 26.432 0 0 0 10.368 20.16 22.848 22.848 0 0 0 12.16 4.864L328 891.264a20.864 20.864 0 0 0 15.808 0l561.856-179.584a24.576 24.576 0 0 0 17.728-23.552c0-10.88-0.64-103.744-0.64-121.28V676.992a24.512 24.512 0 0 1-10.432 20.096 24.96 24.96 0 0 1-22.592 3.136l-78.464-25.536-474.944 152-107.52-34.816 470.144-152.32 2.048-0.768zM441.6-46.144l9.6 572.096a23.616 23.616 0 0 0 16.768 22.144l155.776 48.64L162.56 746.176l-2.048-114.368 145.28-46.848a64 64 0 0 0 44.352-62.08l-9.92-536.384 101.376-32.64z m4.928 0.448v0.384l-0.832-0.256a6990.336 6990.336 0 0 0 0.832-0.128z m63.744-14.528a35.52 35.52 0 0 0 8.512-6.08c2.496-2.24 4.48-4.48 3.392-3.328a91.968 91.968 0 0 1-5.248 5.952 66.176 66.176 0 0 1-6.656 4.352v-0.896z m139.008 472.96l-129.28 39.04-9.6-502.4 131.84 41.152 7.04 422.208z m1.152 66.56l0.96 59.008-96.64-30.144 95.68-28.864z m-305.984 350.08l-8.128-2.624-9.92 3.2a41.728 41.728 0 0 1 18.048-0.64z m0 0l-8.128-2.624-9.92 3.2a41.728 41.728 0 0 1 18.048-0.64zM319.488 832a46.08 46.08 0 0 1 6.912-2.24L319.488 832.064z m539.264-313.472v104.32l-131.776-42.944-1.92-104.896 133.76 43.52z"  horiz-adv-x="1024" />

    
    <glyph glyph-name="Dtupian" unicode="&#59784;" d="M55.424 689.472l-1.28 1.216 121.152 131.008A32 32 0 0 0 198.784 832H959.36a34.88 34.88 0 0 0 2.688 0 32 32 0 0 0 32-32v-722.688c0-21.76-11.392-41.92-30.016-53.12l-123.904-74.56a32.448 32.448 0 0 0-2.24-1.28 63.744 63.744 0 0 0-37.824-12.352h-704a64 64 0 0 0-64 64v143.232l-0.64 0.768 0.64 0.576V640c0 19.968 9.152 37.76 23.424 49.472zM153.6 704h646.4a64 64 0 0 0 17.92-2.56L883.136 768H212.8L153.6 704z m708.608-48.768c1.152-4.928 1.792-9.984 1.792-15.232v-601.28l65.984 39.68V724.416l-67.84-69.12z m-62.208-551.424V640h-704v-440.256l128.32 110.72a32 32 0 0 0 42.624-0.704l204.48-188.608 131.84 124.352a32 32 0 0 0 43.776 0.192l152.96-141.888z m0-87.36l-174.528 161.92-106.88-100.736L602.88 0H800v16.448z m-704 98.816V0h412.416L244.48 243.328 96 115.264zM576 384a64 64 0 1 1 0 128 64 64 0 0 1 0-128z m0-64a128 128 0 1 0 0 256 128 128 0 0 0 0-256z"  horiz-adv-x="1024" />

    
    <glyph glyph-name="Dbeijingwenzi" unicode="&#59785;" d="M512.32 47.36l-1.92-98.048 131.84 41.152 0.256 15.168-130.176 41.728z m2.56 135.68l-1.28-68.864 130.048-41.728 1.152 68.992-129.92 41.6z m2.56 135.744l-1.28-68.928 129.728-41.6 1.152 68.992-129.6 41.536z m131.84 93.888l-129.28 39.04-1.28-66.112 129.472-41.536 1.088 68.608z m1.152 66.56l0.96 59.008-96.64-30.144 95.68-28.864z m50.56 159.552l110.272 35.904-474.944 152-107.52-34.816-96.64 31.36a22.848 22.848 0 0 1-10.112 1.344L328 891.264a20.864 20.864 0 0 0 15.808 0l561.856-179.584a24.576 24.576 0 0 0 17.728-23.552c0-10.88-0.64-103.744-0.64-121.28v-77.568a23.936 23.936 0 0 0-16.512-22.528l-193.088-62.848-7.36-443.072a24.96 24.96 0 0 0-16.832-22.848l-196.864-61.44a19.968 19.968 0 0 0-5.12-1.664l-0.32-0.064a2.688 2.688 0 0 0-1.28-0.064l-0.768-0.064c-5.12-0.128-5.12-0.128-7.68 0.512l-183.168 59.008a25.728 25.728 0 0 0-18.048 24.32l10.432 565.568-172.8 55.68a25.728 25.728 0 0 0-17.28 25.664l3.456 194.112a26.432 26.432 0 0 0 10.368 20.16 22.848 22.848 0 0 0 12.16 4.864L328 891.264a20.864 20.864 0 0 0 15.808 0l561.856-179.584a24.576 24.576 0 0 0 17.728-23.552c0-10.88-0.64-103.744-0.64-121.28V676.992a24.512 24.512 0 0 1-10.432 20.096 24.96 24.96 0 0 1-22.592 3.136l-78.464-25.536-474.944 152-107.52-34.816 470.144-152.32 2.048-0.768zM441.6-46.208l9.6 572.096a23.616 23.616 0 0 0 16.768 22.144l155.776 48.64L162.56 746.176l-2.048-114.368 145.28-46.848a64 64 0 0 0 44.352-62.08l-9.92-536.384 101.376-32.64z m4.928 0.448v0.384l-0.832-0.256a6990.336 6990.336 0 0 0 0.832-0.128z m63.744-14.528a35.52 35.52 0 0 0 8.512-6.08c2.496-2.24 4.48-4.48 3.392-3.328a91.968 91.968 0 0 1-5.248 5.952 66.176 66.176 0 0 1-6.656 4.352v-0.896z m-165.824 889.6l-8.128-2.624-9.92 3.2a41.728 41.728 0 0 1 18.048-0.64z m0 0l-8.128-2.624-9.92 3.2a41.728 41.728 0 0 1 18.048-0.64zM319.488 832a46.08 46.08 0 0 1 6.912-2.24L319.488 832.064z m539.264-313.472v104.32l-131.776-42.944-1.92-104.896 133.76 43.52z"  horiz-adv-x="1024" />

    
    <glyph glyph-name="banqiuguang" unicode="&#59786;" d="M628.608 682.069333a317.866667 317.866667 0 0 1-75.093333 19.242667L669.013333 384h68.096l-108.501333 298.069333z m55.765333-28.416l98.133334-269.653333h49.493333a319.744 319.744 0 0 1-147.626667 269.653333zM507.136 704a320.768 320.768 0 0 1-65.28-7.68L555.434667 384h68.138666l-116.48 320z m-106.282667-19.84c-20.309333-7.509333-39.68-17.066667-57.813333-28.330667L442.026667 384h68.096l-109.226667 300.16zM307.114667 629.802667A321.92 321.92 0 0 1 257.706667 578.346667L328.490667 384h68.096L307.114667 629.802667zM228.778667 533.12A318.592 318.592 0 0 1 192 384h91.050667L228.778667 533.12zM829.184 341.333333H194.816a320.042667 320.042667 0 0 1 634.368 0zM151.808 341.333333H106.666667a21.333333 21.333333 0 1 0 0 42.666667h42.666666a362.666667 362.666667 0 0 0 725.333334 0h42.666666a21.333333 21.333333 0 1 0 0-42.666667h-45.141333a362.709333 362.709333 0 0 0-720.384 0z"  horiz-adv-x="1024" />

    
    <glyph glyph-name="caizhi" unicode="&#59787;" d="M895.957333 547.712a15.914667 15.914667 0 0 0-11.136-14.293333l-190.848-66.816 190.848-74.752a15.914667 15.914667 0 0 0 0-30.208l-190.848-66.773334 190.848-73.173333a15.914667 15.914667 0 0 0 0-30.208l-367.36-127.232h-11.136l-367.36 127.232a15.914667 15.914667 0 0 0 0 30.208l190.805334 73.173333-190.848 66.773334a15.914667 15.914667 0 0 0 0 30.208L329.813333 465.066667 138.922667 531.797333a15.914667 15.914667 0 0 0 0 30.250667l368.981333 141.525333h11.093333l367.402667-139.946666a15.914667 15.914667 0 0 0 9.557333-15.914667zM810.666667 211.072l-172.970667 64.341333-121.258667-41.941333h-10.368L384.853333 276.906667h-2.986666L213.333333 211.029333l298.666667-104.789333 298.666667 104.789333z m-170.026667 236.501333l-122.709333-40.405333h-8.874667l-130.133333 38.912L213.333333 381.696l298.666667-104.789333 298.666667 104.789333-170.026667 65.877333z m-128.64 0l298.666667 100.906667-298.666667 112.426667-298.666667-112.426667 298.666667-100.906667zM1024 0v-128h-128l128 128z"  horiz-adv-x="1024" />

    
    <glyph glyph-name="dianguangyuan" unicode="&#59788;" d="M512 170.666667a213.333333 213.333333 0 1 1 0 426.666666 213.333333 213.333333 0 0 1 0-426.666666z m0-42.666667a256 256 0 1 0 0 512 256 256 0 0 0 0-512z m0 170.666667a85.333333 85.333333 0 1 0 0 170.666666 85.333333 85.333333 0 0 0 0-170.666666z m0 384a42.666667 42.666667 0 1 0 0 85.333333 42.666667 42.666667 0 0 0 0-85.333333z m0-682.666667a42.666667 42.666667 0 1 0 0 85.333333 42.666667 42.666667 0 0 0 0-85.333333z m-298.666667 85.333333a42.666667 42.666667 0 1 0 0 85.333334 42.666667 42.666667 0 0 0 0-85.333334zM768 597.333333a42.666667 42.666667 0 1 0 0 85.333334 42.666667 42.666667 0 0 0 0-85.333334z m85.333333-256a42.666667 42.666667 0 1 0 0 85.333334 42.666667 42.666667 0 0 0 0-85.333334zM170.666667 341.333333a42.666667 42.666667 0 1 0 0 85.333334 42.666667 42.666667 0 0 0 0-85.333334z m42.666666 256a42.666667 42.666667 0 1 0 0 85.333334 42.666667 42.666667 0 0 0 0-85.333334z m554.666667-512a42.666667 42.666667 0 1 0 0 85.333334 42.666667 42.666667 0 0 0 0-85.333334z"  horiz-adv-x="1024" />

    
    <glyph glyph-name="jiheti" unicode="&#59789;" d="M894.592 567.637333l1.066667-1.877333v-396.544a20.608 20.608 0 0 0-11.52-19.242667l-343.338667-184.234666a18.432 18.432 0 0 0-7.466667-1.621334 16.042667 16.042667 0 0 0-8.021333 2.688h-2.688L182.229333 150.186667a20.053333 20.053333 0 0 0-11.221333 18.986666V562.816a16.597333 16.597333 0 0 0 1.578667 7.765333l2.688 4.266667 6.954666 6.4L524.8 766.378667a36.906667 36.906667 0 0 0 17.152 0h2.133333l344.149334-187.178667 6.4-6.954667v-4.565333z m-42.794667-41.984l-296.533333-160.426666v-342.826667l296.533333 160.426667V525.653333zM239.189333 562.048l294.144-158.592 294.144 158.592L533.333333 720.597333 239.189333 562.048z m272.213334-196.821333l-296.533334 160.426666v-343.04l296.533334-160.469333v343.04zM1024 0v-128h-128l128 128z"  horiz-adv-x="1024" />

    
    <glyph glyph-name="huanjingguang" unicode="&#59790;" d="M599.466667 149.33333300000004a106.666667 106.666667 0 0 0 209.066666 0h66.133334a21.333333 21.333333 0 1 0 0-42.666666h-66.133334a106.666667 106.666667 0 0 0-209.066666 0H149.333333a21.333333 21.333333 0 1 0 0 42.666666h450.133334z m104.533333-85.333333a64 64 0 1 1 0 128 64 64 0 0 1 0-128z m-488.533333 341.333333a106.666667 106.666667 0 0 0 209.066666 0H874.666667a21.333333 21.333333 0 1 0 0-42.666666H424.533333a106.666667 106.666667 0 0 0-209.066666 0H149.333333a21.333333 21.333333 0 1 0 0 42.666666h66.133334z m384 256a106.666667 106.666667 0 0 0 209.066666 0h66.133334a21.333333 21.333333 0 1 0 0-42.666666h-66.133334a106.666667 106.666667 0 0 0-209.066666 0H149.333333a21.333333 21.333333 0 0 0 0 42.666666h450.133334z m104.533333-85.333333a64 64 0 1 1 0 128 64 64 0 0 1 0-128z m-384-256a64 64 0 1 1 0 128 64 64 0 0 1 0-128z"  horiz-adv-x="1024" />

    
    <glyph glyph-name="pinghangguang" unicode="&#59791;" d="M808.832 206.378667a19.626667 19.626667 0 0 1-19.754667-20.010667v-54.954667L302.250667 625.92a19.242667 19.242667 0 0 1-27.178667 0 19.754667 19.754667 0 0 1 0-27.434667l486.826667-492.032h-51.882667a19.626667 19.626667 0 0 1-19.797333-19.968c0-12.501333 7.424-19.968 19.797333-19.968h98.816a19.626667 19.626667 0 0 1 19.797333 19.968v99.882667a19.626667 19.626667 0 0 1-19.797333 20.010667z m-345.941333 0a19.626667 19.626667 0 0 1-19.754667-20.010667v-54.954667L203.392 373.76a19.242667 19.242667 0 0 1-27.178667 0 19.754667 19.754667 0 0 1 0-27.477333l239.701334-242.261334H364.032a19.626667 19.626667 0 0 1-19.754667-20.010666c0-12.458667 7.424-19.968 19.754667-19.968h98.858667a19.626667 19.626667 0 0 1 19.754666 19.968V183.893333c0 14.976-9.856 22.485333-19.754666 22.485334z m370.688 324.693333a19.626667 19.626667 0 0 1-19.797334-20.010667v-54.954666l-239.701333 242.261333a19.242667 19.242667 0 0 1-27.178667 0 19.754667 19.754667 0 0 1 0-27.477333l239.701334-242.261334H734.72a19.626667 19.626667 0 0 1-19.754667-19.968c0-12.501333 7.381333-19.968 19.754667-19.968h98.858667a19.626667 19.626667 0 0 1 19.754666 19.968V508.586667c0 14.933333-9.898667 22.442667-19.754666 22.442666z"  horiz-adv-x="1024" />

    
    <glyph glyph-name="judengguang" unicode="&#59792;" d="M692.608 313.813333c-48.042667-10.112-112.512-15.146667-193.365333-15.146666-77.909333 0-140.586667 4.693333-188.074667 14.08 4.266667-9.386667 1.536-17.536-8.32-24.405334l-139.776-97.92c-11.648-8.106667-21.589333-6.4-29.738667 5.248-8.106667 11.648-6.4 21.546667 5.248 29.696l137.173334 96.085334c-46.677333 14.208-71.722667 35.029333-75.178667 62.549333V554.666667a213.333333 213.333333 0 0 0 213.333333 213.333333h170.666667a213.333333 213.333333 0 0 0 213.333333-213.333333v-170.666667c-3.370667-26.88-27.306667-47.36-71.850666-61.525333l138.666666-97.109334c11.605333-8.106667 13.354667-18.048 5.205334-29.696-8.149333-11.648-18.048-13.397333-29.696-5.248l-139.818667 97.92c-10.24 7.125333-12.8 15.616-7.808 25.472z m62.634667 81.493334c-85.333333 20.906667-170.666667 31.36-256 31.36s-170.666667-10.453333-256-31.36v-7.637334c6.528-23.381333 90.581333-46.336 256-46.336s249.472 22.954667 256 46.336v7.68z m0 42.666666V554.666667a170.666667 170.666667 0 0 1-170.666667 170.666666h-170.666667a170.666667 170.666667 0 0 1-170.666666-170.666666v-116.693334c85.333333 20.906667 170.666667 31.36 256 31.36s170.666667-10.453333 256-31.36z m-253.610667-221.866666c14.250667 0 21.333333-7.125333 21.333333-21.333334v-170.666666c0-14.208-7.082667-21.333333-21.333333-21.333334-14.208 0-21.333333 7.125333-21.333333 21.333334v170.666666c0 14.208 7.125333 21.333333 21.333333 21.333334z m-108.544 26.581333c12.544-6.656 15.488-16.298667 8.832-28.842667L321.792 63.146667c-6.698667-12.544-16.298667-15.488-28.885333-8.789334-12.544 6.656-15.488 16.298667-8.789334 28.842667l80.128 150.698667c6.656 12.544 16.298667 15.488 28.842667 8.789333z m217.088 0c12.586667 6.698667 22.186667 3.754667 28.885333-8.789333l80.128-150.698667c6.656-12.544 3.712-22.186667-8.832-28.842667-12.544-6.698667-22.186667-3.754667-28.842666 8.789334l-80.128 150.698666c-6.698667 12.544-3.754667 22.186667 8.789333 28.842667z"  horiz-adv-x="1024" />

    
    <glyph glyph-name="zuhekongjian" unicode="&#59793;" d="M384 298.666667v170.666666a42.666667 42.666667 0 0 0 42.666667 42.666667h170.666666V725.333333H170.666667v-426.666666h213.333333z m42.666667 0h170.666666v170.666666h-170.666666v-170.666666z m213.333333 213.333333h213.333333a42.666667 42.666667 0 0 0 42.666667-42.666667v-426.666666a42.666667 42.666667 0 0 0-42.666667-42.666667H426.666667a42.666667 42.666667 0 0 0-42.666667 42.666667v213.333333H170.666667a42.666667 42.666667 0 0 0-42.666667 42.666667V725.333333a42.666667 42.666667 0 0 0 42.666667 42.666667h426.666666a42.666667 42.666667 0 0 0 42.666667-42.666667v-213.333333z m0-42.666667v-170.666666a42.666667 42.666667 0 0 0-42.666667-42.666667h-170.666666v-213.333333h426.666666V469.333333h-213.333333z m384-469.333333v-128h-128l128 128z"  horiz-adv-x="1024" />

    
    <glyph glyph-name="Dkongjian" unicode="&#59794;" d="M192 539.434667V64h640V539.434667h-640z m0 207.232h640a42.666667 42.666667 0 0 0 42.666667-42.666667v-640a42.666667 42.666667 0 0 0-42.666667-42.666667h-640a42.666667 42.666667 0 0 0-42.666667 42.666667v640a42.666667 42.666667 0 0 0 42.666667 42.666667z m640-164.565334V704h-640v-121.898667h640zM252.970667 173.568l140.16 175.658667c5.418667 7.04 9.130667 13.653333 11.093333 19.712 1.28 5.76 1.962667 11.178667 1.962667 16.298666a53.333333 53.333333 0 0 1-12.544 35.285334c-8.704 10.026667-21.034667 15.189333-36.992 15.530666a48.64 48.64 0 0 1-35.2-13.568c-9.685333-9.045333-15.445333-21.76-17.237334-38.229333H252.970667c1.28 29.909333 11.306667 54.698667 30.037333 74.24a96 96 0 0 0 69.717333 29.141333c30.890667-0.341333 55.893333-10.24 75.136-29.610666 19.541333-19.242667 29.482667-43.690667 29.824-73.301334 0-23.68-7.253333-44.714667-21.674666-63.146666l-115.541334-145.066667h137.216v-51.541333H252.970667v48.597333z m263.850666 311.082667h125.610667c48.64-0.341333 85.077333-20.565333 109.397333-60.672 8.704-13.482667 14.208-27.648 16.512-42.453334 1.792-14.805333 2.688-40.362667 2.688-76.714666 0-38.656-1.365333-65.621333-4.181333-80.938667a90.453333 90.453333 0 0 0-5.888-20.693333 191.616 191.616 0 0 0-10.112-18.517334 125.098667 125.098667 0 0 0-43.861333-41.941333c-18.56-11.861333-41.301333-17.749333-68.266667-17.749333h-121.898667v359.68z m54.442667-308.138667h65.024c30.549333 0 52.736 10.453333 66.517333 31.317333 6.058667 7.765333 9.941333 17.536 11.562667 29.397334 1.493333 11.648 2.218667 33.536 2.218667 65.621333 0 31.232-0.725333 53.589333-2.218667 67.072-1.962667 13.525333-6.656 24.448-14.037333 32.853333-15.104 20.864-36.437333 30.976-64.042667 30.293334h-65.024v-256.554667zM1024 0v-128h-128l128 128z"  horiz-adv-x="1024" />

    
    <glyph glyph-name="tiankonghe" unicode="&#59795;" d="M256 448v-42.666667a149.333333 149.333333 0 0 1 0-298.666666h526.634667v-42.666667H256a192 192 0 1 0 0 384zM768 64a21.333333 21.333333 0 1 0 0 42.666667 149.333333 149.333333 0 1 1-116.992 242.133333 21.333333 21.333333 0 1 0-33.408 26.538667A192 192 0 1 0 768 64zM803.413333 428.202667a21.333333 21.333333 0 1 0-41.6-9.301334 256 256 0 1 1-499.2-114.346666 21.333333 21.333333 0 1 0-41.557333-9.642667 298.666667 298.666667 0 0 0 582.4 133.290667zM1024 0v-128h-128z"  horiz-adv-x="1024" />

    
    </font>
</defs>
</svg>
